<?xml version="1.0" encoding="UTF-8" standalone="no"?><svg xmlns="http://www.w3.org/2000/svg" xmlns:xlink="http://www.w3.org/1999/xlink" contentScriptType="application/ecmascript" contentStyleType="text/css" height="1539.2px" preserveAspectRatio="none" style="width:860px;height:1539px;" version="1.1" viewBox="0 0 860 1539" width="860.8px" zoomAndPan="magnify"><defs><filter height="300%" id="f14ut2k8f2nylu" width="300%" x="-1" y="-1"><feGaussianBlur result="blurOut" stdDeviation="1.600000023841858"/><feColorMatrix in="blurOut" result="blurOut2" type="matrix" values="0 0 0 0 0 0 0 0 0 0 0 0 0 0 0 0 0 0 .4 0"/><feOffset dx="3.200000047683716" dy="3.200000047683716" in="blurOut2" result="blurOut3"/><feBlend in="SourceGraphic" in2="blurOut3" mode="normal"/></filter></defs><g><text fill="#000000" font-family="sans-serif" font-size="11.2" font-weight="bold" lengthAdjust="spacingAndGlyphs" textLength="227.2" x="317.8" y="18.8281">10.3. Notification Limit Position Breach</text><rect fill="#FFFFE0" height="1503.386" style="stroke: #A80036; stroke-width: 0.800000011920929;" width="236.8" x="15.2" y="27.5906"/><text fill="#000000" font-family="sans-serif" font-size="10.4" font-weight="bold" lengthAdjust="spacingAndGlyphs" textLength="86.4" x="90.4" y="37.6453">Central Services</text><rect fill="#90EE90" height="1503.386" style="stroke: #A80036; stroke-width: 0.800000011920929;" width="391.2" x="440.4" y="27.5906"/><text fill="#000000" font-family="sans-serif" font-size="10.4" font-weight="bold" lengthAdjust="spacingAndGlyphs" textLength="181.6" x="545.2" y="37.6453">Central Event Processing Services</text><rect fill="#FFFFFF" filter="url(#f14ut2k8f2nylu)" height="24" style="stroke: #A80036; stroke-width: 0.800000011920929;" width="8" x="73.2" y="193.4719"/><rect fill="#FFFFFF" filter="url(#f14ut2k8f2nylu)" height="24" style="stroke: #A80036; stroke-width: 0.800000011920929;" width="8" x="192.4" y="386.9078"/><rect fill="#FFFFFF" filter="url(#f14ut2k8f2nylu)" height="24" style="stroke: #A80036; stroke-width: 0.800000011920929;" width="8" x="192.4" y="520.7016"/><rect fill="#FFFFFF" filter="url(#f14ut2k8f2nylu)" height="1363.9563" style="stroke: #A80036; stroke-width: 0.800000011920929;" width="8" x="506.8" y="101.0297"/><rect fill="#FFFFFF" filter="url(#f14ut2k8f2nylu)" height="24" style="stroke: #A80036; stroke-width: 0.800000011920929;" width="8" x="795.6" y="434.3563"/><rect fill="#FFFFFF" filter="url(#f14ut2k8f2nylu)" height="106.0422" style="stroke: #A80036; stroke-width: 0.800000011920929;" width="8" x="795.6" y="568.15"/><rect fill="#FFFFFF" filter="url(#f14ut2k8f2nylu)" height="24" style="stroke: #A80036; stroke-width: 0.800000011920929;" width="8" x="795.6" y="787.4344"/><rect fill="#FFFFFF" filter="url(#f14ut2k8f2nylu)" height="93.7938" style="stroke: #A80036; stroke-width: 0.800000011920929;" width="8" x="795.6" y="1060.2828"/><rect fill="#FFFFFF" filter="url(#f14ut2k8f2nylu)" height="24" style="stroke: #A80036; stroke-width: 0.800000011920929;" width="8" x="795.6" y="1384.7735"/><rect fill="#FFFFFF" filter="url(#f14ut2k8f2nylu)" height="1358.3563" style="stroke: #000000; stroke-width: 1.600000023841858;" width="842" x="10.4" y="106.6297"/><rect fill="#FFFFFF" filter="url(#f14ut2k8f2nylu)" height="1115.6235" style="stroke: #000000; stroke-width: 1.600000023841858;" width="708.4" x="136" y="343.7625"/><rect fill="#FFFFFF" filter="url(#f14ut2k8f2nylu)" height="514.1938" style="stroke: #000000; stroke-width: 1.600000023841858;" width="408.8" x="427.6" y="927.6281"/><rect fill="#FFFFFF" height="410.5516" style="stroke: none; stroke-width: 0.800000011920929;" width="408.8" x="427.6" y="1031.2703"/><rect fill="#FFFFFF" filter="url(#f14ut2k8f2nylu)" height="91.1094" style="stroke: #000000; stroke-width: 1.600000023841858;" width="304.4" x="435.6" y="1271.0156"/><rect fill="#FFFFFF" height="11.9641" style="stroke: none; stroke-width: 0.800000011920929;" width="304.4" x="435.6" y="1350.161"/><rect fill="#FFFFFF" height="11.9641" style="stroke: none; stroke-width: 0.800000011920929;" width="708.4" x="136" y="1447.4219"/><line style="stroke: #A80036; stroke-width: 0.800000011920929; stroke-dasharray: 5.0,5.0;" x1="76.8" x2="76.8" y1="93.0297" y2="1478.586"/><line style="stroke: #A80036; stroke-width: 0.800000011920929; stroke-dasharray: 5.0,5.0;" x1="196" x2="196" y1="93.0297" y2="1478.586"/><line style="stroke: #A80036; stroke-width: 0.800000011920929; stroke-dasharray: 5.0,5.0;" x1="510.8" x2="510.8" y1="93.0297" y2="1478.586"/><line style="stroke: #A80036; stroke-width: 0.800000011920929; stroke-dasharray: 5.0,5.0;" x1="799.6" x2="799.6" y1="93.0297" y2="1478.586"/><rect fill="#FEFECE" filter="url(#f14ut2k8f2nylu)" height="24.3906" style="stroke: #A80036; stroke-width: 1.2000000178813934;" width="111.2" x="21.6" y="61.4391"/><rect fill="#FEFECE" filter="url(#f14ut2k8f2nylu)" height="24.3906" style="stroke: #A80036; stroke-width: 1.2000000178813934;" width="111.2" x="18.4" y="64.6391"/><text fill="#000000" font-family="sans-serif" font-size="11.2" lengthAdjust="spacingAndGlyphs" textLength="100" x="24" y="81.0672">Notification-Topic</text><rect fill="#FEFECE" filter="url(#f14ut2k8f2nylu)" height="24.3906" style="stroke: #A80036; stroke-width: 1.2000000178813934;" width="111.2" x="21.6" y="1477.786"/><rect fill="#FEFECE" filter="url(#f14ut2k8f2nylu)" height="24.3906" style="stroke: #A80036; stroke-width: 1.2000000178813934;" width="111.2" x="18.4" y="1480.986"/><text fill="#000000" font-family="sans-serif" font-size="11.2" lengthAdjust="spacingAndGlyphs" textLength="100" x="24" y="1497.4141">Notification-Topic</text><text fill="#000000" font-family="sans-serif" font-size="11.2" lengthAdjust="spacingAndGlyphs" textLength="100" x="144" y="90.6672">Central Admin API</text><path d="M180,57.4391 L180,76.6391 M180,67.0391 L193.6,67.0391 " fill="none" filter="url(#f14ut2k8f2nylu)" style="stroke: #A80036; stroke-width: 1.600000023841858;"/><ellipse cx="203.2" cy="67.0391" fill="#FEFECE" filter="url(#f14ut2k8f2nylu)" rx="9.6" ry="9.6" style="stroke: #A80036; stroke-width: 1.600000023841858;"/><text fill="#000000" font-family="sans-serif" font-size="11.2" lengthAdjust="spacingAndGlyphs" textLength="100" x="144" y="1488.6141">Central Admin API</text><path d="M180,1494.1766 L180,1513.3766 M180,1503.7766 L193.6,1503.7766 " fill="none" filter="url(#f14ut2k8f2nylu)" style="stroke: #A80036; stroke-width: 1.600000023841858;"/><ellipse cx="203.2" cy="1503.7766" fill="#FEFECE" filter="url(#f14ut2k8f2nylu)" rx="9.6" ry="9.6" style="stroke: #A80036; stroke-width: 1.600000023841858;"/><text fill="#000000" font-family="sans-serif" font-size="11.2" lengthAdjust="spacingAndGlyphs" textLength="129.6" x="443.6" y="90.6672">Central Event Processor</text><ellipse cx="510.8" cy="67.0391" fill="#FEFECE" filter="url(#f14ut2k8f2nylu)" rx="9.6" ry="9.6" style="stroke: #A80036; stroke-width: 1.600000023841858;"/><polygon fill="#A80036" points="507.6,57.4391,512.4,53.4391,510.8,57.4391,512.4,61.4391,507.6,57.4391" style="stroke: #A80036; stroke-width: 0.800000011920929;"/><text fill="#000000" font-family="sans-serif" font-size="11.2" lengthAdjust="spacingAndGlyphs" textLength="129.6" x="443.6" y="1488.6141">Central Event Processor</text><ellipse cx="510.8" cy="1503.7766" fill="#FEFECE" filter="url(#f14ut2k8f2nylu)" rx="9.6" ry="9.6" style="stroke: #A80036; stroke-width: 1.600000023841858;"/><polygon fill="#A80036" points="507.6,1494.1766,512.4,1490.1766,510.8,1494.1766,512.4,1498.1766,507.6,1494.1766" style="stroke: #A80036; stroke-width: 0.800000011920929;"/><text fill="#000000" font-family="sans-serif" font-size="11.2" lengthAdjust="spacingAndGlyphs" textLength="52.8" x="770.8" y="90.6672">CEP Store</text><path d="M785.2,51.0391 C785.2,43.0391 799.6,43.0391 799.6,43.0391 C799.6,43.0391 814,43.0391 814,51.0391 L814,71.8391 C814,79.8391 799.6,79.8391 799.6,79.8391 C799.6,79.8391 785.2,79.8391 785.2,71.8391 L785.2,51.0391 " fill="#FEFECE" filter="url(#f14ut2k8f2nylu)" style="stroke: #000000; stroke-width: 1.2000000178813934;"/><path d="M785.2,51.0391 C785.2,59.0391 799.6,59.0391 799.6,59.0391 C799.6,59.0391 814,59.0391 814,51.0391 " fill="none" style="stroke: #000000; stroke-width: 1.2000000178813934;"/><text fill="#000000" font-family="sans-serif" font-size="11.2" lengthAdjust="spacingAndGlyphs" textLength="52.8" x="770.8" y="1488.6141">CEP Store</text><path d="M785.2,1498.9766 C785.2,1490.9766 799.6,1490.9766 799.6,1490.9766 C799.6,1490.9766 814,1490.9766 814,1498.9766 L814,1519.7766 C814,1527.7766 799.6,1527.7766 799.6,1527.7766 C799.6,1527.7766 785.2,1527.7766 785.2,1519.7766 L785.2,1498.9766 " fill="#FEFECE" filter="url(#f14ut2k8f2nylu)" style="stroke: #000000; stroke-width: 1.2000000178813934;"/><path d="M785.2,1498.9766 C785.2,1506.9766 799.6,1506.9766 799.6,1506.9766 C799.6,1506.9766 814,1506.9766 814,1498.9766 " fill="none" style="stroke: #000000; stroke-width: 1.2000000178813934;"/><rect fill="#FFFFFF" filter="url(#f14ut2k8f2nylu)" height="24" style="stroke: #A80036; stroke-width: 0.800000011920929;" width="8" x="73.2" y="193.4719"/><rect fill="#FFFFFF" filter="url(#f14ut2k8f2nylu)" height="24" style="stroke: #A80036; stroke-width: 0.800000011920929;" width="8" x="192.4" y="386.9078"/><rect fill="#FFFFFF" filter="url(#f14ut2k8f2nylu)" height="24" style="stroke: #A80036; stroke-width: 0.800000011920929;" width="8" x="192.4" y="520.7016"/><rect fill="#FFFFFF" filter="url(#f14ut2k8f2nylu)" height="1363.9563" style="stroke: #A80036; stroke-width: 0.800000011920929;" width="8" x="506.8" y="101.0297"/><rect fill="#FFFFFF" filter="url(#f14ut2k8f2nylu)" height="24" style="stroke: #A80036; stroke-width: 0.800000011920929;" width="8" x="795.6" y="434.3563"/><rect fill="#FFFFFF" filter="url(#f14ut2k8f2nylu)" height="106.0422" style="stroke: #A80036; stroke-width: 0.800000011920929;" width="8" x="795.6" y="568.15"/><rect fill="#FFFFFF" filter="url(#f14ut2k8f2nylu)" height="24" style="stroke: #A80036; stroke-width: 0.800000011920929;" width="8" x="795.6" y="787.4344"/><rect fill="#FFFFFF" filter="url(#f14ut2k8f2nylu)" height="93.7938" style="stroke: #A80036; stroke-width: 0.800000011920929;" width="8" x="795.6" y="1060.2828"/><rect fill="#FFFFFF" filter="url(#f14ut2k8f2nylu)" height="24" style="stroke: #A80036; stroke-width: 0.800000011920929;" width="8" x="795.6" y="1384.7735"/><path d="M10.4,106.6297 L159.2,106.6297 L159.2,112.2297 L151.2,120.2297 L10.4,120.2297 L10.4,106.6297 " fill="#EEEEEE" style="stroke: #000000; stroke-width: 0.800000011920929;"/><rect fill="none" height="1358.3563" style="stroke: #000000; stroke-width: 1.600000023841858;" width="842" x="10.4" y="106.6297"/><text fill="#000000" font-family="sans-serif" font-size="10.4" font-weight="bold" lengthAdjust="spacingAndGlyphs" textLength="112.8" x="22.4" y="117.4844">Limit Position Breach</text><path d="M80.8,124.4781 L80.8,168.4781 L202.4,168.4781 L202.4,132.4781 L194.4,124.4781 L80.8,124.4781 " fill="#D3D3D3" filter="url(#f14ut2k8f2nylu)" style="stroke: #A80036; stroke-width: 0.800000011920929;"/><path d="M194.4,124.4781 L194.4,132.4781 L202.4,132.4781 L194.4,124.4781 " fill="#D3D3D3" style="stroke: #A80036; stroke-width: 0.800000011920929;"/><text fill="#000000" font-family="sans-serif" font-size="10.4" lengthAdjust="spacingAndGlyphs" textLength="104" x="85.6" y="138.5328">Events are published</text><text fill="#000000" font-family="sans-serif" font-size="10.4" lengthAdjust="spacingAndGlyphs" textLength="104.8" x="85.6" y="150.7813">to Notification Topic</text><text fill="#000000" font-family="sans-serif" font-size="10.4" lengthAdjust="spacingAndGlyphs" textLength="95.2" x="85.6" y="163.0297">by Central Services</text><polygon fill="#A80036" points="90,190.2719,82,193.4719,90,196.6719,86.8,193.4719" style="stroke: #A80036; stroke-width: 0.800000011920929;"/><line style="stroke: #A80036; stroke-width: 0.800000011920929;" x1="85.2" x2="506" y1="193.4719" y2="193.4719"/><text fill="#000000" font-family="sans-serif" font-size="10.4" font-weight="bold" lengthAdjust="spacingAndGlyphs" textLength="7.2" x="94.8" y="189.6781">1</text><text fill="#000000" font-family="sans-serif" font-size="10.4" lengthAdjust="spacingAndGlyphs" textLength="167.2" x="105.2" y="189.6781">Consumes notification messages</text><line style="stroke: #A80036; stroke-width: 0.800000011920929;" x1="514.8" x2="548.4" y1="240.9203" y2="240.9203"/><line style="stroke: #A80036; stroke-width: 0.800000011920929;" x1="548.4" x2="548.4" y1="240.9203" y2="251.3203"/><line style="stroke: #A80036; stroke-width: 0.800000011920929;" x1="515.6" x2="548.4" y1="251.3203" y2="251.3203"/><polygon fill="#A80036" points="523.6,248.1203,515.6,251.3203,523.6,254.5203,520.4,251.3203" style="stroke: #A80036; stroke-width: 0.800000011920929;"/><text fill="#000000" font-family="sans-serif" font-size="10.4" font-weight="bold" lengthAdjust="spacingAndGlyphs" textLength="7.2" x="520.4" y="237.1266">2</text><text fill="#000000" font-family="sans-serif" font-size="10.4" lengthAdjust="spacingAndGlyphs" textLength="156.8" x="530.8" y="237.1266">Filter according to event action</text><path d="M518.4,261.7203 L518.4,330.5203 L787.2,330.5203 L787.2,269.7203 L779.2,261.7203 L518.4,261.7203 " fill="#FBFB77" filter="url(#f14ut2k8f2nylu)" style="stroke: #A80036; stroke-width: 0.800000011920929;"/><path d="M779.2,261.7203 L779.2,269.7203 L787.2,269.7203 L779.2,261.7203 " fill="#FBFB77" style="stroke: #A80036; stroke-width: 0.800000011920929;"/><text fill="#000000" font-family="sans-serif" font-size="10.4" lengthAdjust="spacingAndGlyphs" textLength="116.8" x="523.2" y="275.775">Qualifying event action</text><text fill="#000000" font-family="sans-serif" font-size="10.4" lengthAdjust="spacingAndGlyphs" textLength="0" x="526.4" y="288.0234"/><text fill="#000000" font-family="sans-serif" font-size="10.4" lengthAdjust="spacingAndGlyphs" textLength="3.2" x="523.2" y="300.2719">{</text><text fill="#000000" font-family="sans-serif" font-size="10.4" lengthAdjust="spacingAndGlyphs" textLength="239.2" x="536" y="312.5203">data.value.metadata.event.action === 'commit'</text><text fill="#000000" font-family="sans-serif" font-size="10.4" lengthAdjust="spacingAndGlyphs" textLength="3.2" x="523.2" y="324.7688">}</text><path d="M136,343.7625 L185.6,343.7625 L185.6,349.3625 L177.6,357.3625 L136,357.3625 L136,343.7625 " fill="#EEEEEE" style="stroke: #000000; stroke-width: 0.800000011920929;"/><rect fill="none" height="1115.6235" style="stroke: #000000; stroke-width: 1.600000023841858;" width="708.4" x="136" y="343.7625"/><text fill="#000000" font-family="sans-serif" font-size="10.4" font-weight="bold" lengthAdjust="spacingAndGlyphs" textLength="13.6" x="148" y="354.6172">alt</text><text fill="#000000" font-family="sans-serif" font-size="8.8" font-weight="bold" lengthAdjust="spacingAndGlyphs" textLength="152" x="197.6" y="353.8703">[Messages event type that qualify]</text><polygon fill="#A80036" points="209.2,383.7078,201.2,386.9078,209.2,390.1078,206,386.9078" style="stroke: #A80036; stroke-width: 0.800000011920929;"/><line style="stroke: #A80036; stroke-width: 0.800000011920929;" x1="204.4" x2="506" y1="386.9078" y2="386.9078"/><text fill="#000000" font-family="sans-serif" font-size="10.4" font-weight="bold" lengthAdjust="spacingAndGlyphs" textLength="7.2" x="214" y="376.9898">3</text><text fill="#000000" font-family="sans-serif" font-size="10.4" lengthAdjust="spacingAndGlyphs" textLength="252.8" x="224.4" y="370.8656">Request notification info for both payee and payer</text><text fill="#FF0000" font-family="sans-serif" font-size="10.4" font-weight="bold" lengthAdjust="spacingAndGlyphs" textLength="64" x="224.4" y="383.1141">Error codes:</text><text fill="#FF0000" font-family="sans-serif" font-size="10.4" lengthAdjust="spacingAndGlyphs" textLength="57.6" x="291.6" y="383.1141">2001, 2003</text><polygon fill="#A80036" points="786,431.1563,794,434.3563,786,437.5563,789.2,434.3563" style="stroke: #A80036; stroke-width: 0.800000011920929;"/><line style="stroke: #A80036; stroke-width: 0.800000011920929;" x1="514.8" x2="790.8" y1="434.3563" y2="434.3563"/><text fill="#000000" font-family="sans-serif" font-size="10.4" font-weight="bold" lengthAdjust="spacingAndGlyphs" textLength="7.2" x="520.4" y="430.5625">4</text><text fill="#000000" font-family="sans-serif" font-size="10.4" lengthAdjust="spacingAndGlyphs" textLength="207.2" x="530.8" y="430.5625">Persist message related data to CEP store</text><polygon fill="#FFFFE0" filter="url(#f14ut2k8f2nylu)" points="781.6,468.7563,817.6,468.7563,825.6,477.5563,817.6,487.1563,781.6,487.1563,773.6,477.5563,781.6,468.7563" style="stroke: #A80036; stroke-width: 0.800000011920929;"/><text fill="#000000" font-family="sans-serif" font-size="10.4" lengthAdjust="spacingAndGlyphs" textLength="32.8" x="783.2" y="482.0109">events</text><polygon fill="#A80036" points="209.2,517.5016,201.2,520.7016,209.2,523.9016,206,520.7016" style="stroke: #A80036; stroke-width: 0.800000011920929;"/><line style="stroke: #A80036; stroke-width: 0.800000011920929;" x1="204.4" x2="506" y1="520.7016" y2="520.7016"/><text fill="#000000" font-family="sans-serif" font-size="10.4" font-weight="bold" lengthAdjust="spacingAndGlyphs" textLength="7.2" x="214" y="510.7836">5</text><text fill="#000000" font-family="sans-serif" font-size="10.4" lengthAdjust="spacingAndGlyphs" textLength="280.8" x="224.4" y="504.6594">Request current positions info for both payee and payer</text><text fill="#FF0000" font-family="sans-serif" font-size="10.4" font-weight="bold" lengthAdjust="spacingAndGlyphs" textLength="64" x="224.4" y="516.9078">Error codes:</text><text fill="#FF0000" font-family="sans-serif" font-size="10.4" lengthAdjust="spacingAndGlyphs" textLength="57.6" x="291.6" y="516.9078">2001, 2003</text><polygon fill="#A80036" points="786,564.95,794,568.15,786,571.35,789.2,568.15" style="stroke: #A80036; stroke-width: 0.800000011920929;"/><line style="stroke: #A80036; stroke-width: 0.800000011920929;" x1="514.8" x2="790.8" y1="568.15" y2="568.15"/><text fill="#000000" font-family="sans-serif" font-size="10.4" font-weight="bold" lengthAdjust="spacingAndGlyphs" textLength="7.2" x="520.4" y="564.3563">6</text><text fill="#000000" font-family="sans-serif" font-size="10.4" lengthAdjust="spacingAndGlyphs" textLength="111.2" x="530.8" y="564.3563">Request current limits</text><polygon fill="#FFFFE0" filter="url(#f14ut2k8f2nylu)" points="783.2,578.55,815.2,578.55,823.2,587.35,815.2,596.95,783.2,596.95,775.2,587.35,783.2,578.55" style="stroke: #A80036; stroke-width: 0.800000011920929;"/><text fill="#000000" font-family="sans-serif" font-size="10.4" lengthAdjust="spacingAndGlyphs" textLength="28.8" x="784.8" y="591.8047">limits</text><path d="M518.4,605.1984 L518.4,649.1984 L660.8,649.1984 L660.8,613.1984 L652.8,605.1984 L518.4,605.1984 " fill="#D3D3D3" filter="url(#f14ut2k8f2nylu)" style="stroke: #A80036; stroke-width: 0.800000011920929;"/><path d="M652.8,605.1984 L652.8,613.1984 L660.8,613.1984 L652.8,605.1984 " fill="#D3D3D3" style="stroke: #A80036; stroke-width: 0.800000011920929;"/><text fill="#000000" font-family="sans-serif" font-size="10.4" lengthAdjust="spacingAndGlyphs" textLength="100.8" x="523.2" y="619.2531">API call to CEP Store</text><text fill="#000000" font-family="sans-serif" font-size="10.4" lengthAdjust="spacingAndGlyphs" textLength="92.8" x="523.2" y="631.5016">requesting current</text><text fill="#000000" font-family="sans-serif" font-size="10.4" font-weight="bold" lengthAdjust="spacingAndGlyphs" textLength="29.6" x="619.2" y="631.5016">limits</text><text fill="#000000" font-family="sans-serif" font-size="10.4" lengthAdjust="spacingAndGlyphs" textLength="14.4" x="523.2" y="643.75">for</text><text fill="#000000" font-family="sans-serif" font-size="10.4" font-weight="bold" lengthAdjust="spacingAndGlyphs" textLength="32.8" x="540.8" y="643.75">payee</text><text fill="#000000" font-family="sans-serif" font-size="10.4" lengthAdjust="spacingAndGlyphs" textLength="18.4" x="576.8" y="643.75">and</text><text fill="#000000" font-family="sans-serif" font-size="10.4" font-weight="bold" lengthAdjust="spacingAndGlyphs" textLength="31.2" x="598.4" y="643.75">payer</text><polygon fill="#A80036" points="523.6,670.9922,515.6,674.1922,523.6,677.3922,520.4,674.1922" style="stroke: #A80036; stroke-width: 0.800000011920929;"/><line style="stroke: #A80036; stroke-width: 0.800000011920929; stroke-dasharray: 2.0,2.0;" x1="518.8" x2="798.8" y1="674.1922" y2="674.1922"/><text fill="#000000" font-family="sans-serif" font-size="10.4" font-weight="bold" lengthAdjust="spacingAndGlyphs" textLength="7.2" x="528.4" y="670.3984">7</text><text fill="#000000" font-family="sans-serif" font-size="10.4" lengthAdjust="spacingAndGlyphs" textLength="141.6" x="538.8" y="670.3984">Return results current limits</text><line style="stroke: #A80036; stroke-width: 0.800000011920929;" x1="514.8" x2="548.4" y1="697.6406" y2="697.6406"/><line style="stroke: #A80036; stroke-width: 0.800000011920929;" x1="548.4" x2="548.4" y1="697.6406" y2="708.0406"/><line style="stroke: #A80036; stroke-width: 0.800000011920929;" x1="515.6" x2="548.4" y1="708.0406" y2="708.0406"/><polygon fill="#A80036" points="523.6,704.8406,515.6,708.0406,523.6,711.2406,520.4,708.0406" style="stroke: #A80036; stroke-width: 0.800000011920929;"/><text fill="#000000" font-family="sans-serif" font-size="10.4" font-weight="bold" lengthAdjust="spacingAndGlyphs" textLength="7.2" x="520.4" y="693.8469">8</text><text fill="#000000" font-family="sans-serif" font-size="10.4" lengthAdjust="spacingAndGlyphs" textLength="0" x="534" y="693.8469"/><path d="M518.4,718.4406 L518.4,762.4406 L732.8,762.4406 L732.8,726.4406 L724.8,718.4406 L518.4,718.4406 " fill="#D3D3D3" filter="url(#f14ut2k8f2nylu)" style="stroke: #A80036; stroke-width: 0.800000011920929;"/><path d="M724.8,718.4406 L724.8,726.4406 L732.8,726.4406 L724.8,718.4406 " fill="#D3D3D3" style="stroke: #A80036; stroke-width: 0.800000011920929;"/><text fill="#000000" font-family="sans-serif" font-size="10.4" lengthAdjust="spacingAndGlyphs" textLength="104.8" x="523.2" y="732.4953">Calculate the current</text><text fill="#000000" font-family="sans-serif" font-size="10.4" font-weight="bold" lengthAdjust="spacingAndGlyphs" textLength="52" x="631.2" y="732.4953">threshold</text><text fill="#000000" font-family="sans-serif" font-size="10.4" font-weight="bold" lengthAdjust="spacingAndGlyphs" textLength="61.6" x="523.2" y="744.7438">percentage</text><text fill="#000000" font-family="sans-serif" font-size="10.4" lengthAdjust="spacingAndGlyphs" textLength="40.8" x="588" y="744.7438">for both</text><text fill="#000000" font-family="sans-serif" font-size="10.4" font-weight="bold" lengthAdjust="spacingAndGlyphs" textLength="32.8" x="632" y="744.7438">payee</text><text fill="#000000" font-family="sans-serif" font-size="10.4" lengthAdjust="spacingAndGlyphs" textLength="18.4" x="668" y="744.7438">and</text><text fill="#000000" font-family="sans-serif" font-size="10.4" font-weight="bold" lengthAdjust="spacingAndGlyphs" textLength="31.2" x="689.6" y="744.7438">payer</text><text fill="#000000" font-family="sans-serif" font-size="10.4" lengthAdjust="spacingAndGlyphs" textLength="29.6" x="523.2" y="756.9922">for all</text><text fill="#000000" font-family="sans-serif" font-size="10.4" font-weight="bold" lengthAdjust="spacingAndGlyphs" textLength="56.8" x="556" y="756.9922">currencies</text><polygon fill="#A80036" points="786,784.2344,794,787.4344,786,790.6344,789.2,787.4344" style="stroke: #A80036; stroke-width: 0.800000011920929;"/><line style="stroke: #A80036; stroke-width: 0.800000011920929;" x1="514.8" x2="790.8" y1="787.4344" y2="787.4344"/><text fill="#000000" font-family="sans-serif" font-size="10.4" font-weight="bold" lengthAdjust="spacingAndGlyphs" textLength="7.2" x="520.4" y="783.6406">9</text><text fill="#000000" font-family="sans-serif" font-size="10.4" lengthAdjust="spacingAndGlyphs" textLength="240" x="530.8" y="783.6406">Persist new position with threshold information</text><polygon fill="#FFFFE0" filter="url(#f14ut2k8f2nylu)" points="783.2,821.8344,815.2,821.8344,823.2,830.6344,815.2,840.2344,783.2,840.2344,775.2,830.6344,783.2,821.8344" style="stroke: #A80036; stroke-width: 0.800000011920929;"/><text fill="#000000" font-family="sans-serif" font-size="10.4" lengthAdjust="spacingAndGlyphs" textLength="28.8" x="784.8" y="835.0891">limits</text><line style="stroke: #A80036; stroke-width: 0.800000011920929;" x1="514.8" x2="548.4" y1="861.5313" y2="861.5313"/><line style="stroke: #A80036; stroke-width: 0.800000011920929;" x1="548.4" x2="548.4" y1="861.5313" y2="871.9313"/><line style="stroke: #A80036; stroke-width: 0.800000011920929;" x1="515.6" x2="548.4" y1="871.9313" y2="871.9313"/><polygon fill="#A80036" points="523.6,868.7313,515.6,871.9313,523.6,875.1313,520.4,871.9313" style="stroke: #A80036; stroke-width: 0.800000011920929;"/><text fill="#000000" font-family="sans-serif" font-size="10.4" font-weight="bold" lengthAdjust="spacingAndGlyphs" textLength="14.4" x="520.4" y="857.7375">10</text><text fill="#000000" font-family="sans-serif" font-size="10.4" lengthAdjust="spacingAndGlyphs" textLength="0" x="541.2" y="857.7375"/><path d="M518.4,882.3313 L518.4,914.3313 L630.4,914.3313 L630.4,890.3313 L622.4,882.3313 L518.4,882.3313 " fill="#D3D3D3" filter="url(#f14ut2k8f2nylu)" style="stroke: #A80036; stroke-width: 0.800000011920929;"/><path d="M622.4,882.3313 L622.4,890.3313 L630.4,890.3313 L622.4,882.3313 " fill="#D3D3D3" style="stroke: #A80036; stroke-width: 0.800000011920929;"/><text fill="#000000" font-family="sans-serif" font-size="10.4" lengthAdjust="spacingAndGlyphs" textLength="74.4" x="523.2" y="896.386">Evaluate 'facts'</text><text fill="#000000" font-family="sans-serif" font-size="10.4" lengthAdjust="spacingAndGlyphs" textLength="95.2" x="523.2" y="908.6344">Invoke Rule Engine</text><path d="M427.6,927.6281 L477.2,927.6281 L477.2,933.2281 L469.2,941.2281 L427.6,941.2281 L427.6,927.6281 " fill="#EEEEEE" style="stroke: #000000; stroke-width: 0.800000011920929;"/><rect fill="none" height="514.1938" style="stroke: #000000; stroke-width: 1.600000023841858;" width="408.8" x="427.6" y="927.6281"/><text fill="#000000" font-family="sans-serif" font-size="10.4" font-weight="bold" lengthAdjust="spacingAndGlyphs" textLength="13.6" x="439.6" y="938.4828">alt</text><text fill="#000000" font-family="sans-serif" font-size="8.8" font-weight="bold" lengthAdjust="spacingAndGlyphs" textLength="106.4" x="489.2" y="937.736">[Threshold is breached]</text><line style="stroke: #A80036; stroke-width: 0.800000011920929;" x1="514.8" x2="548.4" y1="958.525" y2="958.525"/><line style="stroke: #A80036; stroke-width: 0.800000011920929;" x1="548.4" x2="548.4" y1="958.525" y2="968.925"/><line style="stroke: #A80036; stroke-width: 0.800000011920929;" x1="515.6" x2="548.4" y1="968.925" y2="968.925"/><polygon fill="#A80036" points="523.6,965.725,515.6,968.925,523.6,972.125,520.4,968.925" style="stroke: #A80036; stroke-width: 0.800000011920929;"/><text fill="#000000" font-family="sans-serif" font-size="10.4" font-weight="bold" lengthAdjust="spacingAndGlyphs" textLength="14.4" x="520.4" y="954.7313">11</text><text fill="#000000" font-family="sans-serif" font-size="10.4" lengthAdjust="spacingAndGlyphs" textLength="0" x="541.2" y="954.7313"/><path d="M518.4,979.325 L518.4,1023.325 L738.4,1023.325 L738.4,987.325 L730.4,979.325 L518.4,979.325 " fill="#D3D3D3" filter="url(#f14ut2k8f2nylu)" style="stroke: #A80036; stroke-width: 0.800000011920929;"/><path d="M730.4,979.325 L730.4,987.325 L738.4,987.325 L730.4,979.325 " fill="#D3D3D3" style="stroke: #A80036; stroke-width: 0.800000011920929;"/><text fill="#000000" font-family="sans-serif" font-size="10.4" lengthAdjust="spacingAndGlyphs" textLength="55.2" x="523.2" y="993.3797">Create new</text><text fill="#000000" font-family="sans-serif" font-size="10.4" font-weight="bold" lengthAdjust="spacingAndGlyphs" textLength="72.8" x="581.6" y="993.3797">Action Object</text><text fill="#000000" font-family="sans-serif" font-size="10.4" lengthAdjust="spacingAndGlyphs" textLength="3.2" x="654.4" y="993.3797">.</text><text fill="#000000" font-family="sans-serif" font-size="10.4" lengthAdjust="spacingAndGlyphs" textLength="22.4" x="523.2" y="1005.6281">Pass</text><text fill="#000000" font-family="sans-serif" font-size="10.4" font-weight="bold" lengthAdjust="spacingAndGlyphs" textLength="72.8" x="548.8" y="1005.6281">Action Object</text><text fill="#000000" font-family="sans-serif" font-size="10.4" lengthAdjust="spacingAndGlyphs" textLength="101.6" x="624.8" y="1005.6281">to the Action Agent.</text><text fill="#000000" font-family="sans-serif" font-size="10.4" lengthAdjust="spacingAndGlyphs" textLength="175.2" x="523.2" y="1017.8766">Send finish single to Action Agent.</text><line style="stroke: #000000; stroke-width: 0.800000011920929; stroke-dasharray: 2.0,2.0;" x1="427.6" x2="836.4" y1="1032.0703" y2="1032.0703"/><text fill="#000000" font-family="sans-serif" font-size="8.8" font-weight="bold" lengthAdjust="spacingAndGlyphs" textLength="175.2" x="431.6" y="1040.5781">[Threshold not breached - same event]</text><polygon fill="#A80036" points="786,1057.0828,794,1060.2828,786,1063.4828,789.2,1060.2828" style="stroke: #A80036; stroke-width: 0.800000011920929;"/><line style="stroke: #A80036; stroke-width: 0.800000011920929;" x1="514.8" x2="790.8" y1="1060.2828" y2="1060.2828"/><text fill="#000000" font-family="sans-serif" font-size="10.4" font-weight="bold" lengthAdjust="spacingAndGlyphs" textLength="14.4" x="520.4" y="1056.4891">12</text><text fill="#000000" font-family="sans-serif" font-size="10.4" lengthAdjust="spacingAndGlyphs" textLength="40" x="538" y="1056.4891">Request</text><text fill="#000000" font-family="sans-serif" font-size="10.4" font-weight="bold" lengthAdjust="spacingAndGlyphs" textLength="72.8" x="581.2" y="1056.4891">Action Object</text><path d="M518.4,1070.6828 L518.4,1102.6828 L697.6,1102.6828 L697.6,1078.6828 L689.6,1070.6828 L518.4,1070.6828 " fill="#D3D3D3" filter="url(#f14ut2k8f2nylu)" style="stroke: #A80036; stroke-width: 0.800000011920929;"/><path d="M689.6,1070.6828 L689.6,1078.6828 L697.6,1078.6828 L689.6,1070.6828 " fill="#D3D3D3" style="stroke: #A80036; stroke-width: 0.800000011920929;"/><text fill="#000000" font-family="sans-serif" font-size="10.4" lengthAdjust="spacingAndGlyphs" textLength="86.4" x="523.2" y="1084.7375">Request previous</text><text fill="#000000" font-family="sans-serif" font-size="10.4" font-weight="bold" lengthAdjust="spacingAndGlyphs" textLength="72.8" x="612.8" y="1084.7375">Action Object</text><text fill="#000000" font-family="sans-serif" font-size="10.4" lengthAdjust="spacingAndGlyphs" textLength="118.4" x="523.2" y="1096.986">with same event details</text><polygon fill="#FFFFE0" filter="url(#f14ut2k8f2nylu)" points="782.4,1114.3797,816.8,1114.3797,824.8,1123.1797,816.8,1132.7797,782.4,1132.7797,774.4,1123.1797,782.4,1114.3797" style="stroke: #A80036; stroke-width: 0.800000011920929;"/><text fill="#000000" font-family="sans-serif" font-size="10.4" lengthAdjust="spacingAndGlyphs" textLength="31.2" x="784" y="1127.6344">action</text><polygon fill="#A80036" points="523.6,1150.8766,515.6,1154.0766,523.6,1157.2766,520.4,1154.0766" style="stroke: #A80036; stroke-width: 0.800000011920929;"/><line style="stroke: #A80036; stroke-width: 0.800000011920929; stroke-dasharray: 2.0,2.0;" x1="518.8" x2="798.8" y1="1154.0766" y2="1154.0766"/><text fill="#000000" font-family="sans-serif" font-size="10.4" font-weight="bold" lengthAdjust="spacingAndGlyphs" textLength="14.4" x="528.4" y="1150.2828">13</text><text fill="#000000" font-family="sans-serif" font-size="10.4" lengthAdjust="spacingAndGlyphs" textLength="70.4" x="546" y="1150.2828">Return results</text><path d="M518.4,1164.4766 L518.4,1258.0766 L692.8,1258.0766 L692.8,1172.4766 L684.8,1164.4766 L518.4,1164.4766 " fill="#FBFB77" filter="url(#f14ut2k8f2nylu)" style="stroke: #A80036; stroke-width: 0.800000011920929;"/><path d="M684.8,1164.4766 L684.8,1172.4766 L692.8,1172.4766 L684.8,1164.4766 " fill="#FBFB77" style="stroke: #A80036; stroke-width: 0.800000011920929;"/><text fill="#000000" font-family="sans-serif" font-size="10.4" lengthAdjust="spacingAndGlyphs" textLength="81.6" x="523.2" y="1178.5313">Event details for</text><text fill="#000000" font-family="sans-serif" font-size="10.4" font-weight="bold" lengthAdjust="spacingAndGlyphs" textLength="72.8" x="608" y="1178.5313">Action Object</text><text fill="#000000" font-family="sans-serif" font-size="10.4" lengthAdjust="spacingAndGlyphs" textLength="3.2" x="523.2" y="1190.7797">{</text><text fill="#000000" font-family="sans-serif" font-size="10.4" lengthAdjust="spacingAndGlyphs" textLength="48" x="536" y="1203.0281">limit type</text><text fill="#000000" font-family="sans-serif" font-size="10.4" lengthAdjust="spacingAndGlyphs" textLength="43.2" x="536" y="1215.2766">currency</text><text fill="#000000" font-family="sans-serif" font-size="10.4" lengthAdjust="spacingAndGlyphs" textLength="22.4" x="536" y="1227.525">dfsp</text><text fill="#000000" font-family="sans-serif" font-size="10.4" lengthAdjust="spacingAndGlyphs" textLength="131.2" x="536" y="1239.7735">notification endpoint type</text><text fill="#000000" font-family="sans-serif" font-size="10.4" lengthAdjust="spacingAndGlyphs" textLength="3.2" x="523.2" y="1252.0219">}</text><path d="M435.6,1271.0156 L485.2,1271.0156 L485.2,1276.6156 L477.2,1284.6156 L435.6,1284.6156 L435.6,1271.0156 " fill="#EEEEEE" style="stroke: #000000; stroke-width: 0.800000011920929;"/><rect fill="none" height="91.1094" style="stroke: #000000; stroke-width: 1.600000023841858;" width="304.4" x="435.6" y="1271.0156"/><text fill="#000000" font-family="sans-serif" font-size="10.4" font-weight="bold" lengthAdjust="spacingAndGlyphs" textLength="13.6" x="447.6" y="1281.8703">alt</text><text fill="#000000" font-family="sans-serif" font-size="8.8" font-weight="bold" lengthAdjust="spacingAndGlyphs" textLength="87.2" x="497.2" y="1281.1235">[Action Event exist]</text><line style="stroke: #A80036; stroke-width: 0.800000011920929;" x1="514.8" x2="548.4" y1="1301.9125" y2="1301.9125"/><line style="stroke: #A80036; stroke-width: 0.800000011920929;" x1="548.4" x2="548.4" y1="1301.9125" y2="1312.3125"/><line style="stroke: #A80036; stroke-width: 0.800000011920929;" x1="515.6" x2="548.4" y1="1312.3125" y2="1312.3125"/><polygon fill="#A80036" points="523.6,1309.1125,515.6,1312.3125,523.6,1315.5125,520.4,1312.3125" style="stroke: #A80036; stroke-width: 0.800000011920929;"/><text fill="#000000" font-family="sans-serif" font-size="10.4" font-weight="bold" lengthAdjust="spacingAndGlyphs" textLength="14.4" x="520.4" y="1298.1188">14</text><text fill="#000000" font-family="sans-serif" font-size="10.4" lengthAdjust="spacingAndGlyphs" textLength="0" x="541.2" y="1298.1188"/><path d="M518.4,1322.7125 L518.4,1342.7125 L728.8,1342.7125 L728.8,1330.7125 L720.8,1322.7125 L518.4,1322.7125 " fill="#D3D3D3" filter="url(#f14ut2k8f2nylu)" style="stroke: #A80036; stroke-width: 0.800000011920929;"/><path d="M720.8,1322.7125 L720.8,1330.7125 L728.8,1330.7125 L720.8,1322.7125 " fill="#D3D3D3" style="stroke: #A80036; stroke-width: 0.800000011920929;"/><text fill="#000000" font-family="sans-serif" font-size="10.4" lengthAdjust="spacingAndGlyphs" textLength="87.2" x="523.2" y="1336.7672">Deactive pending</text><text fill="#000000" font-family="sans-serif" font-size="10.4" font-weight="bold" lengthAdjust="spacingAndGlyphs" textLength="72.8" x="613.6" y="1336.7672">Action Object</text><text fill="#000000" font-family="sans-serif" font-size="10.4" lengthAdjust="spacingAndGlyphs" textLength="27.2" x="689.6" y="1336.7672">event</text><line style="stroke: #000000; stroke-width: 0.800000011920929; stroke-dasharray: 2.0,2.0;" x1="435.6" x2="740" y1="1350.961" y2="1350.961"/><text fill="#000000" font-family="sans-serif" font-size="8.8" font-weight="bold" lengthAdjust="spacingAndGlyphs" textLength="128.8" x="439.6" y="1359.4688">[Action Event does not exist]</text><polygon fill="#A80036" points="786,1381.5735,794,1384.7735,786,1387.9735,789.2,1384.7735" style="stroke: #A80036; stroke-width: 0.800000011920929;"/><line style="stroke: #A80036; stroke-width: 0.800000011920929;" x1="514.8" x2="790.8" y1="1384.7735" y2="1384.7735"/><text fill="#000000" font-family="sans-serif" font-size="10.4" font-weight="bold" lengthAdjust="spacingAndGlyphs" textLength="14.4" x="520.4" y="1380.9797">15</text><text fill="#000000" font-family="sans-serif" font-size="10.4" lengthAdjust="spacingAndGlyphs" textLength="77.6" x="538" y="1380.9797">Persist updated</text><text fill="#000000" font-family="sans-serif" font-size="10.4" font-weight="bold" lengthAdjust="spacingAndGlyphs" textLength="72.8" x="618.8" y="1380.9797">Action Object</text><text fill="#000000" font-family="sans-serif" font-size="10.4" lengthAdjust="spacingAndGlyphs" textLength="91.2" x="694.8" y="1380.9797">event to CEP Store</text><polygon fill="#FFFFE0" filter="url(#f14ut2k8f2nylu)" points="782.4,1419.1735,816.8,1419.1735,824.8,1427.9735,816.8,1437.5735,782.4,1437.5735,774.4,1427.9735,782.4,1419.1735" style="stroke: #A80036; stroke-width: 0.800000011920929;"/><text fill="#000000" font-family="sans-serif" font-size="10.4" lengthAdjust="spacingAndGlyphs" textLength="31.2" x="784" y="1432.4281">action</text><line style="stroke: #000000; stroke-width: 0.800000011920929; stroke-dasharray: 2.0,2.0;" x1="136" x2="844.4" y1="1448.2219" y2="1448.2219"/><text fill="#000000" font-family="sans-serif" font-size="8.8" font-weight="bold" lengthAdjust="spacingAndGlyphs" textLength="222.4" x="140" y="1456.7297">[Message does not qualify for notification action]</text><!--
@startuml
title 10.3. Notification Limit Position Breach
autonumber

collections "Notification-Topic" as TOPIC_NOTIFY
boundary "Central Admin API" as CLAPI
control "Central Event Processor" as CEP
database "CEP Store" as DB

box "Central Services" #LightYellow
participant TOPIC_NOTIFY
participant CLAPI
end box
box "Central Event Processing Services" #LightGreen
participant CEP
participant DB
end box

Group Limit Position Breach
    activate CEP
    note right of TOPIC_NOTIFY #LightGrey
        Events are published
        to Notification Topic
        by Central Services
    end note
    TOPIC_NOTIFY <- CEP: Consumes notification messages
    activate TOPIC_NOTIFY
    deactivate TOPIC_NOTIFY
    CEP -> CEP: Filter according to event action
    note right of CEP
        Qualifying event action

        {
            data.value.metadata.event.action === 'commit'
        }
    end note

    alt Messages event type that qualify
        CLAPI <- CEP: Request notification info for both payee and payer\n<color #FF0000><b>Error codes:</b> 2001, 2003 </color>
        activate CLAPI
        deactivate CLAPI
        CEP -> DB: Persist message related data to CEP store
        activate DB
        hnote over DB #LightYellow
            events
        end hnote
        deactivate DB
        CLAPI <- CEP: Request current positions info for both payee and payer\n<color #FF0000><b>Error codes:</b> 2001, 2003 </color>
        activate CLAPI
        deactivate CLAPI
        CEP -> DB: Request current limits
        activate DB
        hnote over DB #LightYellow
            limits
        end hnote
        note right of CEP #LightGrey
            API call to CEP Store
            requesting current **limits**
            for **payee** and **payer**
        end note
        CEP <- - DB: Return results current limits
        deactivate DB
        CEP -> CEP:
        note right of CEP #LightGrey
            Calculate the current **threshold**
            **percentage** for both **payee** and **payer**
            for all **currencies**
        end note
        CEP -> DB: Persist new position with threshold information
        activate DB
        hnote over DB #LightYellow
            limits
        end hnote
        deactivate DB
        CEP -> CEP
        note right of CEP #LightGrey
            Evaluate 'facts'
            Invoke Rule Engine
        end note

        alt Threshold is breached
            CEP -> CEP:
            note right of CEP #LightGrey
                Create new **Action Object**.
                Pass **Action Object** to the Action Agent.
                Send finish single to Action Agent.
            end note
        else Threshold not breached - same event
            CEP -> DB: Request **Action Object**
            note right of CEP #LightGrey
                Request previous **Action Object**
                with same event details
            end note
            activate DB
        hnote over DB #LightYellow
            action
        end hnote
        CEP <- - DB: Return results
        deactivate DB
            note right of CEP
                Event details for **Action Object**
                {
                    limit type
                    currency
                    dfsp
                    notification endpoint type
                }
            end note
            alt Action Event exist
                CEP -> CEP
                note right of CEP #LightGrey
                    Deactive pending **Action Object** event
                end note
            else Action Event does not exist
            end
        CEP -> DB: Persist updated **Action Object** event to CEP Store
        activate DB
        hnote over DB #LightYellow
            action
        end hnote
        deactivate DB
        end
    else Message does not qualify for notification action
    end
    deactivate CEP
end
@enduml

PlantUML version 1.2018.11(Sat Sep 22 18:43:53 SAST 2018)
(GPL source distribution)
Java Runtime: OpenJDK Runtime Environment
JVM: OpenJDK 64-Bit Server VM
Java Version: 1.8.0_152-release-1343-b26
Operating System: Mac OS X
OS Version: 10.14.2
Default Encoding: UTF-8
Language: en
Country: ZA
--></g></svg>