<?xml version="1.0" encoding="UTF-8" standalone="no"?><svg xmlns="http://www.w3.org/2000/svg" xmlns:xlink="http://www.w3.org/1999/xlink" contentScriptType="application/ecmascript" contentStyleType="text/css" height="1103px" preserveAspectRatio="none" style="width:1040px;height:1103px;" version="1.1" viewBox="0 0 1040 1103" width="1040px" zoomAndPan="magnify"><defs><filter height="300%" id="f1tjfeosbofnav" width="300%" x="-1" y="-1"><feGaussianBlur result="blurOut" stdDeviation="2.0"/><feColorMatrix in="blurOut" result="blurOut2" type="matrix" values="0 0 0 0 0 0 0 0 0 0 0 0 0 0 0 0 0 0 .4 0"/><feOffset dx="4.0" dy="4.0" in="blurOut2" result="blurOut3"/><feBlend in="SourceGraphic" in2="blurOut3" mode="normal"/></filter></defs><g><text fill="#000000" font-family="sans-serif" font-size="14" font-weight="bold" lengthAdjust="spacingAndGlyphs" textLength="256" x="393.25" y="23.5352">10.1. Notification Process Overview</text><rect fill="#FFFFE0" height="1057.6504" style="stroke: #A80036; stroke-width: 1.0;" width="296" x="29" y="34.4883"/><text fill="#000000" font-family="sans-serif" font-size="13" font-weight="bold" lengthAdjust="spacingAndGlyphs" textLength="108" x="123" y="47.0566">Central Services</text><rect fill="#90EE90" height="1057.6504" style="stroke: #A80036; stroke-width: 1.0;" width="429" x="431.5" y="34.4883"/><text fill="#000000" font-family="sans-serif" font-size="13" font-weight="bold" lengthAdjust="spacingAndGlyphs" textLength="227" x="532.5" y="47.0566">Central Event Processing Services</text><rect fill="#ADD8E6" height="1057.6504" style="stroke: #A80036; stroke-width: 1.0;" width="151" x="862.5" y="34.4883"/><text fill="#000000" font-family="sans-serif" font-size="13" font-weight="bold" lengthAdjust="spacingAndGlyphs" textLength="109" x="883.5" y="47.0566">Notifier Services</text><rect fill="#FFFFFF" filter="url(#f1tjfeosbofnav)" height="30" style="stroke: #A80036; stroke-width: 1.0;" width="10" x="93.5" y="422.3926"/><rect fill="#FFFFFF" filter="url(#f1tjfeosbofnav)" height="30" style="stroke: #A80036; stroke-width: 1.0;" width="10" x="242.5" y="241.8398"/><rect fill="#FFFFFF" filter="url(#f1tjfeosbofnav)" height="97.5313" style="stroke: #A80036; stroke-width: 1.0;" width="10" x="242.5" y="842.498"/><rect fill="#FFFFFF" filter="url(#f1tjfeosbofnav)" height="761.1211" style="stroke: #A80036; stroke-width: 1.0;" width="10" x="514.5" y="126.2871"/><rect fill="#FFFFFF" filter="url(#f1tjfeosbofnav)" height="30" style="stroke: #A80036; stroke-width: 1.0;" width="10" x="815.5" y="521.0137"/><rect fill="#FFFFFF" filter="url(#f1tjfeosbofnav)" height="30" style="stroke: #A80036; stroke-width: 1.0;" width="10" x="815.5" y="783.1875"/><rect fill="#FFFFFF" filter="url(#f1tjfeosbofnav)" height="876.3633" style="stroke: #000000; stroke-width: 2.0;" width="1016.5" x="13" y="133.2871"/><rect fill="#FFFFFF" filter="url(#f1tjfeosbofnav)" height="518.9473" style="stroke: #000000; stroke-width: 2.0;" width="853.5" x="23" y="368.4609"/><rect fill="#FFFFFF" filter="url(#f1tjfeosbofnav)" height="202.5078" style="stroke: #000000; stroke-width: 2.0;" width="702.5" x="164" y="662.9453"/><rect fill="#FFFFFF" height="14.9551" style="stroke: none; stroke-width: 1.0;" width="702.5" x="164" y="850.498"/><rect fill="#FFFFFF" height="14.9551" style="stroke: none; stroke-width: 1.0;" width="853.5" x="23" y="872.4531"/><rect fill="#FFFFFF" filter="url(#f1tjfeosbofnav)" height="101.2422" style="stroke: #000000; stroke-width: 2.0;" width="855.5" x="164" y="901.4082"/><line style="stroke: #A80036; stroke-width: 1.0; stroke-dasharray: 5.0,5.0;" x1="98" x2="98" y1="116.2871" y2="1026.6504"/><line style="stroke: #A80036; stroke-width: 1.0; stroke-dasharray: 5.0,5.0;" x1="247" x2="247" y1="116.2871" y2="1026.6504"/><line style="stroke: #A80036; stroke-width: 1.0; stroke-dasharray: 5.0,5.0;" x1="519.5" x2="519.5" y1="116.2871" y2="1026.6504"/><line style="stroke: #A80036; stroke-width: 1.0; stroke-dasharray: 5.0,5.0;" x1="820.5" x2="820.5" y1="116.2871" y2="1026.6504"/><line style="stroke: #A80036; stroke-width: 1.0; stroke-dasharray: 5.0,5.0;" x1="937.5" x2="937.5" y1="116.2871" y2="1026.6504"/><text fill="#000000" font-family="sans-serif" font-size="14" lengthAdjust="spacingAndGlyphs" textLength="125" x="33" y="113.334">Central Admin API</text><path d="M78,71.7988 L78,95.7988 M78,83.7988 L95,83.7988 " fill="none" filter="url(#f1tjfeosbofnav)" style="stroke: #A80036; stroke-width: 2.0;"/><ellipse cx="107" cy="83.7988" fill="#FEFECE" filter="url(#f1tjfeosbofnav)" rx="12" ry="12" style="stroke: #A80036; stroke-width: 2.0;"/><text fill="#000000" font-family="sans-serif" font-size="14" lengthAdjust="spacingAndGlyphs" textLength="125" x="33" y="1039.1855">Central Admin API</text><path d="M78,1046.1387 L78,1070.1387 M78,1058.1387 L95,1058.1387 " fill="none" filter="url(#f1tjfeosbofnav)" style="stroke: #A80036; stroke-width: 2.0;"/><ellipse cx="107" cy="1058.1387" fill="#FEFECE" filter="url(#f1tjfeosbofnav)" rx="12" ry="12" style="stroke: #A80036; stroke-width: 2.0;"/><rect fill="#FEFECE" filter="url(#f1tjfeosbofnav)" height="30.4883" style="stroke: #A80036; stroke-width: 1.5;" width="139" x="178" y="76.7988"/><rect fill="#FEFECE" filter="url(#f1tjfeosbofnav)" height="30.4883" style="stroke: #A80036; stroke-width: 1.5;" width="139" x="174" y="80.7988"/><text fill="#000000" font-family="sans-serif" font-size="14" lengthAdjust="spacingAndGlyphs" textLength="125" x="181" y="101.334">Notification-Topic</text><rect fill="#FEFECE" filter="url(#f1tjfeosbofnav)" height="30.4883" style="stroke: #A80036; stroke-width: 1.5;" width="139" x="178" y="1025.6504"/><rect fill="#FEFECE" filter="url(#f1tjfeosbofnav)" height="30.4883" style="stroke: #A80036; stroke-width: 1.5;" width="139" x="174" y="1029.6504"/><text fill="#000000" font-family="sans-serif" font-size="14" lengthAdjust="spacingAndGlyphs" textLength="125" x="181" y="1050.1855">Notification-Topic</text><text fill="#000000" font-family="sans-serif" font-size="14" lengthAdjust="spacingAndGlyphs" textLength="162" x="435.5" y="113.334">Central Event Processor</text><ellipse cx="519.5" cy="83.7988" fill="#FEFECE" filter="url(#f1tjfeosbofnav)" rx="12" ry="12" style="stroke: #A80036; stroke-width: 2.0;"/><polygon fill="#A80036" points="515.5,71.7988,521.5,66.7988,519.5,71.7988,521.5,76.7988,515.5,71.7988" style="stroke: #A80036; stroke-width: 1.0;"/><text fill="#000000" font-family="sans-serif" font-size="14" lengthAdjust="spacingAndGlyphs" textLength="162" x="435.5" y="1039.1855">Central Event Processor</text><ellipse cx="519.5" cy="1058.1387" fill="#FEFECE" filter="url(#f1tjfeosbofnav)" rx="12" ry="12" style="stroke: #A80036; stroke-width: 2.0;"/><polygon fill="#A80036" points="515.5,1046.1387,521.5,1041.1387,519.5,1046.1387,521.5,1051.1387,515.5,1046.1387" style="stroke: #A80036; stroke-width: 1.0;"/><text fill="#000000" font-family="sans-serif" font-size="14" lengthAdjust="spacingAndGlyphs" textLength="66" x="784.5" y="113.334">CEP Store</text><path d="M802.5,63.7988 C802.5,53.7988 820.5,53.7988 820.5,53.7988 C820.5,53.7988 838.5,53.7988 838.5,63.7988 L838.5,89.7988 C838.5,99.7988 820.5,99.7988 820.5,99.7988 C820.5,99.7988 802.5,99.7988 802.5,89.7988 L802.5,63.7988 " fill="#FEFECE" filter="url(#f1tjfeosbofnav)" style="stroke: #000000; stroke-width: 1.5;"/><path d="M802.5,63.7988 C802.5,73.7988 820.5,73.7988 820.5,73.7988 C820.5,73.7988 838.5,73.7988 838.5,63.7988 " fill="none" style="stroke: #000000; stroke-width: 1.5;"/><text fill="#000000" font-family="sans-serif" font-size="14" lengthAdjust="spacingAndGlyphs" textLength="66" x="784.5" y="1039.1855">CEP Store</text><path d="M802.5,1052.1387 C802.5,1042.1387 820.5,1042.1387 820.5,1042.1387 C820.5,1042.1387 838.5,1042.1387 838.5,1052.1387 L838.5,1078.1387 C838.5,1088.1387 820.5,1088.1387 820.5,1088.1387 C820.5,1088.1387 802.5,1088.1387 802.5,1078.1387 L802.5,1052.1387 " fill="#FEFECE" filter="url(#f1tjfeosbofnav)" style="stroke: #000000; stroke-width: 1.5;"/><path d="M802.5,1052.1387 C802.5,1062.1387 820.5,1062.1387 820.5,1062.1387 C820.5,1062.1387 838.5,1062.1387 838.5,1052.1387 " fill="none" style="stroke: #000000; stroke-width: 1.5;"/><text fill="#000000" font-family="sans-serif" font-size="14" lengthAdjust="spacingAndGlyphs" textLength="137" x="866.5" y="113.334">Notification Handler</text><ellipse cx="938" cy="83.7988" fill="#FEFECE" filter="url(#f1tjfeosbofnav)" rx="12" ry="12" style="stroke: #A80036; stroke-width: 2.0;"/><polygon fill="#A80036" points="934,71.7988,940,66.7988,938,71.7988,940,76.7988,934,71.7988" style="stroke: #A80036; stroke-width: 1.0;"/><text fill="#000000" font-family="sans-serif" font-size="14" lengthAdjust="spacingAndGlyphs" textLength="137" x="866.5" y="1039.1855">Notification Handler</text><ellipse cx="938" cy="1058.1387" fill="#FEFECE" filter="url(#f1tjfeosbofnav)" rx="12" ry="12" style="stroke: #A80036; stroke-width: 2.0;"/><polygon fill="#A80036" points="934,1046.1387,940,1041.1387,938,1046.1387,940,1051.1387,934,1046.1387" style="stroke: #A80036; stroke-width: 1.0;"/><rect fill="#FFFFFF" filter="url(#f1tjfeosbofnav)" height="30" style="stroke: #A80036; stroke-width: 1.0;" width="10" x="93.5" y="422.3926"/><rect fill="#FFFFFF" filter="url(#f1tjfeosbofnav)" height="30" style="stroke: #A80036; stroke-width: 1.0;" width="10" x="242.5" y="241.8398"/><rect fill="#FFFFFF" filter="url(#f1tjfeosbofnav)" height="97.5313" style="stroke: #A80036; stroke-width: 1.0;" width="10" x="242.5" y="842.498"/><rect fill="#FFFFFF" filter="url(#f1tjfeosbofnav)" height="761.1211" style="stroke: #A80036; stroke-width: 1.0;" width="10" x="514.5" y="126.2871"/><rect fill="#FFFFFF" filter="url(#f1tjfeosbofnav)" height="30" style="stroke: #A80036; stroke-width: 1.0;" width="10" x="815.5" y="521.0137"/><rect fill="#FFFFFF" filter="url(#f1tjfeosbofnav)" height="30" style="stroke: #A80036; stroke-width: 1.0;" width="10" x="815.5" y="783.1875"/><path d="M13,133.2871 L190,133.2871 L190,140.2871 L180,150.2871 L13,150.2871 L13,133.2871 " fill="#EEEEEE" style="stroke: #000000; stroke-width: 1.0;"/><rect fill="none" height="876.3633" style="stroke: #000000; stroke-width: 2.0;" width="1016.5" x="13" y="133.2871"/><text fill="#000000" font-family="sans-serif" font-size="13" font-weight="bold" lengthAdjust="spacingAndGlyphs" textLength="132" x="28" y="146.8555">Notification Process</text><path d="M252,155.5977 L252,210.5977 L404,210.5977 L404,165.5977 L394,155.5977 L252,155.5977 " fill="#D3D3D3" filter="url(#f1tjfeosbofnav)" style="stroke: #A80036; stroke-width: 1.0;"/><path d="M394,155.5977 L394,165.5977 L404,165.5977 L394,155.5977 " fill="#D3D3D3" style="stroke: #A80036; stroke-width: 1.0;"/><text fill="#000000" font-family="sans-serif" font-size="13" lengthAdjust="spacingAndGlyphs" textLength="130" x="258" y="173.166">Events are published</text><text fill="#000000" font-family="sans-serif" font-size="13" lengthAdjust="spacingAndGlyphs" textLength="131" x="258" y="188.4766">to Notification Topic</text><text fill="#000000" font-family="sans-serif" font-size="13" lengthAdjust="spacingAndGlyphs" textLength="119" x="258" y="203.7871">by Central Services</text><polygon fill="#A80036" points="263.5,237.8398,253.5,241.8398,263.5,245.8398,259.5,241.8398" style="stroke: #A80036; stroke-width: 1.0;"/><line style="stroke: #A80036; stroke-width: 1.0;" x1="257.5" x2="513.5" y1="241.8398" y2="241.8398"/><text fill="#000000" font-family="sans-serif" font-size="13" font-weight="bold" lengthAdjust="spacingAndGlyphs" textLength="9" x="269.5" y="237.0977">1</text><text fill="#000000" font-family="sans-serif" font-size="13" lengthAdjust="spacingAndGlyphs" textLength="209" x="282.5" y="237.0977">Consumes notification messages</text><line style="stroke: #A80036; stroke-width: 1.0;" x1="524.5" x2="566.5" y1="301.1504" y2="301.1504"/><line style="stroke: #A80036; stroke-width: 1.0;" x1="566.5" x2="566.5" y1="301.1504" y2="314.1504"/><line style="stroke: #A80036; stroke-width: 1.0;" x1="525.5" x2="566.5" y1="314.1504" y2="314.1504"/><polygon fill="#A80036" points="535.5,310.1504,525.5,314.1504,535.5,318.1504,531.5,314.1504" style="stroke: #A80036; stroke-width: 1.0;"/><text fill="#000000" font-family="sans-serif" font-size="13" font-weight="bold" lengthAdjust="spacingAndGlyphs" textLength="9" x="531.5" y="296.4082">2</text><text fill="#000000" font-family="sans-serif" font-size="13" lengthAdjust="spacingAndGlyphs" textLength="0" x="548.5" y="296.4082"/><path d="M529,327.1504 L529,352.1504 L821,352.1504 L821,337.1504 L811,327.1504 L529,327.1504 " fill="#D3D3D3" filter="url(#f1tjfeosbofnav)" style="stroke: #A80036; stroke-width: 1.0;"/><path d="M811,327.1504 L811,337.1504 L821,337.1504 L811,327.1504 " fill="#D3D3D3" style="stroke: #A80036; stroke-width: 1.0;"/><text fill="#000000" font-family="sans-serif" font-size="13" lengthAdjust="spacingAndGlyphs" textLength="271" x="535" y="344.7188">Filter notification messages on event types</text><path d="M23,368.4609 L85,368.4609 L85,375.4609 L75,385.4609 L23,385.4609 L23,368.4609 " fill="#EEEEEE" style="stroke: #000000; stroke-width: 1.0;"/><rect fill="none" height="518.9473" style="stroke: #000000; stroke-width: 2.0;" width="853.5" x="23" y="368.4609"/><text fill="#000000" font-family="sans-serif" font-size="13" font-weight="bold" lengthAdjust="spacingAndGlyphs" textLength="17" x="38" y="382.0293">alt</text><text fill="#000000" font-family="sans-serif" font-size="11" font-weight="bold" lengthAdjust="spacingAndGlyphs" textLength="190" x="100" y="381.0957">[Messages event type that qualify]</text><polygon fill="#A80036" points="114.5,418.3926,104.5,422.3926,114.5,426.3926,110.5,422.3926" style="stroke: #A80036; stroke-width: 1.0;"/><line style="stroke: #A80036; stroke-width: 1.0;" x1="108.5" x2="513.5" y1="422.3926" y2="422.3926"/><text fill="#000000" font-family="sans-serif" font-size="13" font-weight="bold" lengthAdjust="spacingAndGlyphs" textLength="9" x="120.5" y="409.9951">3</text><text fill="#000000" font-family="sans-serif" font-size="13" lengthAdjust="spacingAndGlyphs" textLength="245" x="133.5" y="402.3398">Request additional info for notification</text><text fill="#FF0000" font-family="sans-serif" font-size="13" font-weight="bold" lengthAdjust="spacingAndGlyphs" textLength="80" x="133.5" y="417.6504">Error codes:</text><text fill="#FF0000" font-family="sans-serif" font-size="13" lengthAdjust="spacingAndGlyphs" textLength="72" x="217.5" y="417.6504">2001, 2003</text><path d="M303,465.3926 L303,490.3926 L505,490.3926 L505,475.3926 L495,465.3926 L303,465.3926 " fill="#D3D3D3" filter="url(#f1tjfeosbofnav)" style="stroke: #A80036; stroke-width: 1.0;"/><path d="M495,465.3926 L495,475.3926 L505,475.3926 L495,465.3926 " fill="#D3D3D3" style="stroke: #A80036; stroke-width: 1.0;"/><text fill="#000000" font-family="sans-serif" font-size="13" lengthAdjust="spacingAndGlyphs" textLength="181" x="309" y="482.9609">API call to Central Admin API</text><polygon fill="#A80036" points="803.5,517.0137,813.5,521.0137,803.5,525.0137,807.5,521.0137" style="stroke: #A80036; stroke-width: 1.0;"/><line style="stroke: #A80036; stroke-width: 1.0;" x1="524.5" x2="809.5" y1="521.0137" y2="521.0137"/><text fill="#000000" font-family="sans-serif" font-size="13" font-weight="bold" lengthAdjust="spacingAndGlyphs" textLength="9" x="531.5" y="516.2715">4</text><text fill="#000000" font-family="sans-serif" font-size="13" lengthAdjust="spacingAndGlyphs" textLength="259" x="544.5" y="516.2715">Persist message related data to CEP store</text><line style="stroke: #A80036; stroke-width: 1.0;" x1="524.5" x2="566.5" y1="580.3242" y2="580.3242"/><line style="stroke: #A80036; stroke-width: 1.0;" x1="566.5" x2="566.5" y1="580.3242" y2="593.3242"/><line style="stroke: #A80036; stroke-width: 1.0;" x1="525.5" x2="566.5" y1="593.3242" y2="593.3242"/><polygon fill="#A80036" points="535.5,589.3242,525.5,593.3242,535.5,597.3242,531.5,593.3242" style="stroke: #A80036; stroke-width: 1.0;"/><text fill="#000000" font-family="sans-serif" font-size="13" font-weight="bold" lengthAdjust="spacingAndGlyphs" textLength="9" x="531.5" y="575.582">5</text><text fill="#000000" font-family="sans-serif" font-size="13" lengthAdjust="spacingAndGlyphs" textLength="0" x="548.5" y="575.582"/><path d="M529,606.3242 L529,646.3242 L697,646.3242 L697,616.3242 L687,606.3242 L529,606.3242 " fill="#D3D3D3" filter="url(#f1tjfeosbofnav)" style="stroke: #A80036; stroke-width: 1.0;"/><path d="M687,606.3242 L687,616.3242 L697,616.3242 L687,606.3242 " fill="#D3D3D3" style="stroke: #A80036; stroke-width: 1.0;"/><text fill="#000000" font-family="sans-serif" font-size="13" lengthAdjust="spacingAndGlyphs" textLength="147" x="535" y="623.8926">Invoke the Rule Engine.</text><text fill="#000000" font-family="sans-serif" font-size="13" lengthAdjust="spacingAndGlyphs" textLength="115" x="535" y="639.2031">Evaluate the facts.</text><path d="M164,662.9453 L226,662.9453 L226,669.9453 L216,679.9453 L164,679.9453 L164,662.9453 " fill="#EEEEEE" style="stroke: #000000; stroke-width: 1.0;"/><rect fill="none" height="202.5078" style="stroke: #000000; stroke-width: 2.0;" width="702.5" x="164" y="662.9453"/><text fill="#000000" font-family="sans-serif" font-size="13" font-weight="bold" lengthAdjust="spacingAndGlyphs" textLength="17" x="179" y="676.5137">alt</text><text fill="#000000" font-family="sans-serif" font-size="11" font-weight="bold" lengthAdjust="spacingAndGlyphs" textLength="305" x="241" y="675.5801">[Qualifying messages will trigger a notification event]</text><line style="stroke: #A80036; stroke-width: 1.0;" x1="524.5" x2="566.5" y1="701.5664" y2="701.5664"/><line style="stroke: #A80036; stroke-width: 1.0;" x1="566.5" x2="566.5" y1="701.5664" y2="714.5664"/><line style="stroke: #A80036; stroke-width: 1.0;" x1="525.5" x2="566.5" y1="714.5664" y2="714.5664"/><polygon fill="#A80036" points="535.5,710.5664,525.5,714.5664,535.5,718.5664,531.5,714.5664" style="stroke: #A80036; stroke-width: 1.0;"/><text fill="#000000" font-family="sans-serif" font-size="13" font-weight="bold" lengthAdjust="spacingAndGlyphs" textLength="9" x="531.5" y="696.8242">6</text><text fill="#000000" font-family="sans-serif" font-size="13" lengthAdjust="spacingAndGlyphs" textLength="0" x="548.5" y="696.8242"/><path d="M529,727.5664 L529,752.5664 L789,752.5664 L789,737.5664 L779,727.5664 L529,727.5664 " fill="#D3D3D3" filter="url(#f1tjfeosbofnav)" style="stroke: #A80036; stroke-width: 1.0;"/><path d="M779,727.5664 L779,737.5664 L789,737.5664 L779,727.5664 " fill="#D3D3D3" style="stroke: #A80036; stroke-width: 1.0;"/><text fill="#000000" font-family="sans-serif" font-size="13" lengthAdjust="spacingAndGlyphs" textLength="239" x="535" y="745.1348">Notification messages is constructed.</text><polygon fill="#A80036" points="803.5,779.1875,813.5,783.1875,803.5,787.1875,807.5,783.1875" style="stroke: #A80036; stroke-width: 1.0;"/><line style="stroke: #A80036; stroke-width: 1.0;" x1="524.5" x2="809.5" y1="783.1875" y2="783.1875"/><text fill="#000000" font-family="sans-serif" font-size="13" font-weight="bold" lengthAdjust="spacingAndGlyphs" textLength="9" x="531.5" y="778.4453">7</text><text fill="#000000" font-family="sans-serif" font-size="13" lengthAdjust="spacingAndGlyphs" textLength="228" x="544.5" y="778.4453">Persist new notification to CEP Store</text><polygon fill="#A80036" points="263.5,838.498,253.5,842.498,263.5,846.498,259.5,842.498" style="stroke: #A80036; stroke-width: 1.0;"/><line style="stroke: #A80036; stroke-width: 1.0;" x1="257.5" x2="513.5" y1="842.498" y2="842.498"/><text fill="#000000" font-family="sans-serif" font-size="13" font-weight="bold" lengthAdjust="spacingAndGlyphs" textLength="9" x="269.5" y="837.7559">8</text><text fill="#000000" font-family="sans-serif" font-size="13" lengthAdjust="spacingAndGlyphs" textLength="230" x="282.5" y="837.7559">Place message to Notification-Topic</text><line style="stroke: #000000; stroke-width: 1.0; stroke-dasharray: 2.0,2.0;" x1="164" x2="866.5" y1="851.498" y2="851.498"/><text fill="#000000" font-family="sans-serif" font-size="11" font-weight="bold" lengthAdjust="spacingAndGlyphs" textLength="322" x="169" y="862.1328">[Message does not qualify for notification event (Ignore)]</text><line style="stroke: #000000; stroke-width: 1.0; stroke-dasharray: 2.0,2.0;" x1="23" x2="876.5" y1="873.4531" y2="873.4531"/><text fill="#000000" font-family="sans-serif" font-size="11" font-weight="bold" lengthAdjust="spacingAndGlyphs" textLength="387" x="28" y="884.0879">[Message event type does not qualify for notification action (Ignore)]</text><path d="M164,901.4082 L328,901.4082 L328,908.4082 L318,918.4082 L164,918.4082 L164,901.4082 " fill="#EEEEEE" style="stroke: #000000; stroke-width: 1.0;"/><rect fill="none" height="101.2422" style="stroke: #000000; stroke-width: 2.0;" width="855.5" x="164" y="901.4082"/><text fill="#000000" font-family="sans-serif" font-size="13" font-weight="bold" lengthAdjust="spacingAndGlyphs" textLength="119" x="179" y="914.9766">Notification event</text><polygon fill="#A80036" points="258.5,936.0293,248.5,940.0293,258.5,944.0293,254.5,940.0293" style="stroke: #A80036; stroke-width: 1.0;"/><line style="stroke: #A80036; stroke-width: 1.0; stroke-dasharray: 2.0,2.0;" x1="252.5" x2="937" y1="940.0293" y2="940.0293"/><text fill="#000000" font-family="sans-serif" font-size="13" font-weight="bold" lengthAdjust="spacingAndGlyphs" textLength="9" x="264.5" y="935.2871">9</text><text fill="#000000" font-family="sans-serif" font-size="13" lengthAdjust="spacingAndGlyphs" textLength="383" x="277.5" y="935.2871">Consumes messages from Notification Topic for processing.</text><path d="M674,953.0293 L674,993.0293 L929,993.0293 L929,963.0293 L919,953.0293 L674,953.0293 " fill="#D3D3D3" filter="url(#f1tjfeosbofnav)" style="stroke: #A80036; stroke-width: 1.0;"/><path d="M919,953.0293 L919,963.0293 L929,963.0293 L919,953.0293 " fill="#D3D3D3" style="stroke: #A80036; stroke-width: 1.0;"/><text fill="#000000" font-family="sans-serif" font-size="13" lengthAdjust="spacingAndGlyphs" textLength="234" x="680" y="970.5977">Notifier Handler to process topic and</text><text fill="#000000" font-family="sans-serif" font-size="13" lengthAdjust="spacingAndGlyphs" textLength="187" x="680" y="985.9082">distribute notifications/alerts</text><!--
@startuml
title 10.1. Notification Process Overview
autonumber

boundary "Central Admin API" as CLAPI
control "Central Event Processor" as CEP
control "Notification Handler" as NOTIFIER
collections "Notification-Topic" as TOPIC_NOTIFY
database "CEP Store" as DB

box "Central Services" #LightYellow
participant CLAPI
participant TOPIC_NOTIFY
end box
box "Central Event Processing Services" #LightGreen
participant CEP
participant DB
end box
box "Notifier Services" #LightBlue
participant NOTIFIER
end box

group Notification Process
    activate CEP
    note right of TOPIC_NOTIFY #LightGrey
        Events are published
        to Notification Topic
        by Central Services
    end note
    TOPIC_NOTIFY <- CEP: Consumes notification messages
    activate TOPIC_NOTIFY
    deactivate TOPIC_NOTIFY
    CEP -> CEP
    note right of CEP #LightGrey
        Filter notification messages on event types
    end note

    alt Messages event type that qualify
        CEP -> CLAPI: Request additional info for notification\n<color #FF0000><b>Error codes:</b> 2001, 2003 </color>
        activate CLAPI
        note left of CEP #LightGrey
            API call to Central Admin API
        end note
        deactivate CLAPI
        CEP -> DB: Persist message related data to CEP store
        activate DB
        deactivate DB
        CEP -> CEP
        note right of CEP #LightGrey
            Invoke the Rule Engine.
            Evaluate the facts.
        end note

        alt Qualifying messages will trigger a notification event
            CEP -> CEP
            note right of CEP #LightGrey
                Notification messages is constructed.
            end note
            CEP -> DB: Persist new notification to CEP Store
            activate DB
            deactivate DB
            TOPIC_NOTIFY <- CEP: Place message to Notification-Topic
            activate TOPIC_NOTIFY
        else Message does not qualify for notification event (Ignore)
        end
    else Message event type does not qualify for notification action (Ignore)
    deactivate CEP
    end

    group Notification event
    TOPIC_NOTIFY <- - NOTIFIER: Consumes messages from Notification Topic for processing.
    note left of NOTIFIER #LightGrey
        Notifier Handler to process topic and
        distribute notifications/alerts
    end note
            deactivate TOPIC_NOTIFY
    end
end
@enduml

PlantUML version 1.2018.11(Sat Sep 22 18:43:53 SAST 2018)
(GPL source distribution)
Java Runtime: OpenJDK Runtime Environment
JVM: OpenJDK 64-Bit Server VM
Java Version: 1.8.0_152-release-1343-b26
Operating System: Mac OS X
OS Version: 10.14.2
Default Encoding: UTF-8
Language: en
Country: ZA
--></g></svg>