<?xml version="1.0" encoding="UTF-8" standalone="no"?><svg xmlns="http://www.w3.org/2000/svg" xmlns:xlink="http://www.w3.org/1999/xlink" contentScriptType="application/ecmascript" contentStyleType="text/css" height="882.4px" preserveAspectRatio="none" style="width:832px;height:882px;" version="1.1" viewBox="0 0 832 882" width="832px" zoomAndPan="magnify"><defs><filter height="300%" id="fgmulux0hhgbr" width="300%" x="-1" y="-1"><feGaussianBlur result="blurOut" stdDeviation="1.600000023841858"/><feColorMatrix in="blurOut" result="blurOut2" type="matrix" values="0 0 0 0 0 0 0 0 0 0 0 0 0 0 0 0 0 0 .4 0"/><feOffset dx="3.200000047683716" dy="3.200000047683716" in="blurOut2" result="blurOut3"/><feBlend in="SourceGraphic" in2="blurOut3" mode="normal"/></filter></defs><g><text fill="#000000" font-family="sans-serif" font-size="11.2" font-weight="bold" lengthAdjust="spacingAndGlyphs" textLength="204.8" x="314.6" y="18.8281">10.1. Notification Process Overview</text><rect fill="#FFFFE0" height="846.1203" style="stroke: #A80036; stroke-width: 0.800000011920929;" width="236.8" x="23.2" y="27.5906"/><text fill="#000000" font-family="sans-serif" font-size="10.4" font-weight="bold" lengthAdjust="spacingAndGlyphs" textLength="86.4" x="98.4" y="37.6453">Central Services</text><rect fill="#90EE90" height="846.1203" style="stroke: #A80036; stroke-width: 0.800000011920929;" width="343.2" x="345.2" y="27.5906"/><text fill="#000000" font-family="sans-serif" font-size="10.4" font-weight="bold" lengthAdjust="spacingAndGlyphs" textLength="181.6" x="426" y="37.6453">Central Event Processing Services</text><rect fill="#ADD8E6" height="846.1203" style="stroke: #A80036; stroke-width: 0.800000011920929;" width="120.8" x="690" y="27.5906"/><text fill="#000000" font-family="sans-serif" font-size="10.4" font-weight="bold" lengthAdjust="spacingAndGlyphs" textLength="87.2" x="706.8" y="37.6453">Notifier Services</text><rect fill="#FFFFFF" filter="url(#fgmulux0hhgbr)" height="24" style="stroke: #A80036; stroke-width: 0.800000011920929;" width="8" x="74.8" y="337.9141"/><rect fill="#FFFFFF" filter="url(#fgmulux0hhgbr)" height="24" style="stroke: #A80036; stroke-width: 0.800000011920929;" width="8" x="194" y="193.4719"/><rect fill="#FFFFFF" filter="url(#fgmulux0hhgbr)" height="78.025" style="stroke: #A80036; stroke-width: 0.800000011920929;" width="8" x="194" y="673.9984"/><rect fill="#FFFFFF" filter="url(#fgmulux0hhgbr)" height="608.8969" style="stroke: #A80036; stroke-width: 0.800000011920929;" width="8" x="411.6" y="101.0297"/><rect fill="#FFFFFF" filter="url(#fgmulux0hhgbr)" height="24" style="stroke: #A80036; stroke-width: 0.800000011920929;" width="8" x="652.4" y="416.8109"/><rect fill="#FFFFFF" filter="url(#fgmulux0hhgbr)" height="24" style="stroke: #A80036; stroke-width: 0.800000011920929;" width="8" x="652.4" y="626.55"/><rect fill="#FFFFFF" filter="url(#fgmulux0hhgbr)" height="701.0906" style="stroke: #000000; stroke-width: 1.600000023841858;" width="813.2" x="10.4" y="106.6297"/><rect fill="#FFFFFF" filter="url(#fgmulux0hhgbr)" height="415.1578" style="stroke: #000000; stroke-width: 1.600000023841858;" width="682.8" x="18.4" y="294.7688"/><rect fill="#FFFFFF" filter="url(#fgmulux0hhgbr)" height="162.0063" style="stroke: #000000; stroke-width: 1.600000023841858;" width="562" x="131.2" y="530.3563"/><rect fill="#FFFFFF" height="11.9641" style="stroke: none; stroke-width: 0.800000011920929;" width="562" x="131.2" y="680.3984"/><rect fill="#FFFFFF" height="11.9641" style="stroke: none; stroke-width: 0.800000011920929;" width="682.8" x="18.4" y="697.9625"/><rect fill="#FFFFFF" filter="url(#fgmulux0hhgbr)" height="80.9938" style="stroke: #000000; stroke-width: 1.600000023841858;" width="684.4" x="131.2" y="721.1266"/><line style="stroke: #A80036; stroke-width: 0.800000011920929; stroke-dasharray: 5.0,5.0;" x1="78.4" x2="78.4" y1="93.0297" y2="821.3203"/><line style="stroke: #A80036; stroke-width: 0.800000011920929; stroke-dasharray: 5.0,5.0;" x1="197.6" x2="197.6" y1="93.0297" y2="821.3203"/><line style="stroke: #A80036; stroke-width: 0.800000011920929; stroke-dasharray: 5.0,5.0;" x1="415.6" x2="415.6" y1="93.0297" y2="821.3203"/><line style="stroke: #A80036; stroke-width: 0.800000011920929; stroke-dasharray: 5.0,5.0;" x1="656.4" x2="656.4" y1="93.0297" y2="821.3203"/><line style="stroke: #A80036; stroke-width: 0.800000011920929; stroke-dasharray: 5.0,5.0;" x1="750" x2="750" y1="93.0297" y2="821.3203"/><text fill="#000000" font-family="sans-serif" font-size="11.2" lengthAdjust="spacingAndGlyphs" textLength="100" x="26.4" y="90.6672">Central Admin API</text><path d="M62.4,57.4391 L62.4,76.6391 M62.4,67.0391 L76,67.0391 " fill="none" filter="url(#fgmulux0hhgbr)" style="stroke: #A80036; stroke-width: 1.600000023841858;"/><ellipse cx="85.6" cy="67.0391" fill="#FEFECE" filter="url(#fgmulux0hhgbr)" rx="9.6" ry="9.6" style="stroke: #A80036; stroke-width: 1.600000023841858;"/><text fill="#000000" font-family="sans-serif" font-size="11.2" lengthAdjust="spacingAndGlyphs" textLength="100" x="26.4" y="831.3484">Central Admin API</text><path d="M62.4,836.9109 L62.4,856.111 M62.4,846.511 L76,846.511 " fill="none" filter="url(#fgmulux0hhgbr)" style="stroke: #A80036; stroke-width: 1.600000023841858;"/><ellipse cx="85.6" cy="846.511" fill="#FEFECE" filter="url(#fgmulux0hhgbr)" rx="9.6" ry="9.6" style="stroke: #A80036; stroke-width: 1.600000023841858;"/><rect fill="#FEFECE" filter="url(#fgmulux0hhgbr)" height="24.3906" style="stroke: #A80036; stroke-width: 1.2000000178813934;" width="111.2" x="142.4" y="61.4391"/><rect fill="#FEFECE" filter="url(#fgmulux0hhgbr)" height="24.3906" style="stroke: #A80036; stroke-width: 1.2000000178813934;" width="111.2" x="139.2" y="64.6391"/><text fill="#000000" font-family="sans-serif" font-size="11.2" lengthAdjust="spacingAndGlyphs" textLength="100" x="144.8" y="81.0672">Notification-Topic</text><rect fill="#FEFECE" filter="url(#fgmulux0hhgbr)" height="24.3906" style="stroke: #A80036; stroke-width: 1.2000000178813934;" width="111.2" x="142.4" y="820.5203"/><rect fill="#FEFECE" filter="url(#fgmulux0hhgbr)" height="24.3906" style="stroke: #A80036; stroke-width: 1.2000000178813934;" width="111.2" x="139.2" y="823.7203"/><text fill="#000000" font-family="sans-serif" font-size="11.2" lengthAdjust="spacingAndGlyphs" textLength="100" x="144.8" y="840.1485">Notification-Topic</text><text fill="#000000" font-family="sans-serif" font-size="11.2" lengthAdjust="spacingAndGlyphs" textLength="129.6" x="348.4" y="90.6672">Central Event Processor</text><ellipse cx="415.6" cy="67.0391" fill="#FEFECE" filter="url(#fgmulux0hhgbr)" rx="9.6" ry="9.6" style="stroke: #A80036; stroke-width: 1.600000023841858;"/><polygon fill="#A80036" points="412.4,57.4391,417.2,53.4391,415.6,57.4391,417.2,61.4391,412.4,57.4391" style="stroke: #A80036; stroke-width: 0.800000011920929;"/><text fill="#000000" font-family="sans-serif" font-size="11.2" lengthAdjust="spacingAndGlyphs" textLength="129.6" x="348.4" y="831.3484">Central Event Processor</text><ellipse cx="415.6" cy="846.511" fill="#FEFECE" filter="url(#fgmulux0hhgbr)" rx="9.6" ry="9.6" style="stroke: #A80036; stroke-width: 1.600000023841858;"/><polygon fill="#A80036" points="412.4,836.9109,417.2,832.9109,415.6,836.9109,417.2,840.911,412.4,836.9109" style="stroke: #A80036; stroke-width: 0.800000011920929;"/><text fill="#000000" font-family="sans-serif" font-size="11.2" lengthAdjust="spacingAndGlyphs" textLength="52.8" x="627.6" y="90.6672">CEP Store</text><path d="M642,51.0391 C642,43.0391 656.4,43.0391 656.4,43.0391 C656.4,43.0391 670.8,43.0391 670.8,51.0391 L670.8,71.8391 C670.8,79.8391 656.4,79.8391 656.4,79.8391 C656.4,79.8391 642,79.8391 642,71.8391 L642,51.0391 " fill="#FEFECE" filter="url(#fgmulux0hhgbr)" style="stroke: #000000; stroke-width: 1.2000000178813934;"/><path d="M642,51.0391 C642,59.0391 656.4,59.0391 656.4,59.0391 C656.4,59.0391 670.8,59.0391 670.8,51.0391 " fill="none" style="stroke: #000000; stroke-width: 1.2000000178813934;"/><text fill="#000000" font-family="sans-serif" font-size="11.2" lengthAdjust="spacingAndGlyphs" textLength="52.8" x="627.6" y="831.3484">CEP Store</text><path d="M642,841.711 C642,833.7109 656.4,833.7109 656.4,833.7109 C656.4,833.7109 670.8,833.7109 670.8,841.711 L670.8,862.511 C670.8,870.511 656.4,870.511 656.4,870.511 C656.4,870.511 642,870.511 642,862.511 L642,841.711 " fill="#FEFECE" filter="url(#fgmulux0hhgbr)" style="stroke: #000000; stroke-width: 1.2000000178813934;"/><path d="M642,841.711 C642,849.711 656.4,849.711 656.4,849.711 C656.4,849.711 670.8,849.711 670.8,841.711 " fill="none" style="stroke: #000000; stroke-width: 1.2000000178813934;"/><text fill="#000000" font-family="sans-serif" font-size="11.2" lengthAdjust="spacingAndGlyphs" textLength="109.6" x="693.2" y="90.6672">Notification Handler</text><ellipse cx="750.4" cy="67.0391" fill="#FEFECE" filter="url(#fgmulux0hhgbr)" rx="9.6" ry="9.6" style="stroke: #A80036; stroke-width: 1.600000023841858;"/><polygon fill="#A80036" points="747.2,57.4391,752,53.4391,750.4,57.4391,752,61.4391,747.2,57.4391" style="stroke: #A80036; stroke-width: 0.800000011920929;"/><text fill="#000000" font-family="sans-serif" font-size="11.2" lengthAdjust="spacingAndGlyphs" textLength="109.6" x="693.2" y="831.3484">Notification Handler</text><ellipse cx="750.4" cy="846.511" fill="#FEFECE" filter="url(#fgmulux0hhgbr)" rx="9.6" ry="9.6" style="stroke: #A80036; stroke-width: 1.600000023841858;"/><polygon fill="#A80036" points="747.2,836.9109,752,832.9109,750.4,836.9109,752,840.911,747.2,836.9109" style="stroke: #A80036; stroke-width: 0.800000011920929;"/><rect fill="#FFFFFF" filter="url(#fgmulux0hhgbr)" height="24" style="stroke: #A80036; stroke-width: 0.800000011920929;" width="8" x="74.8" y="337.9141"/><rect fill="#FFFFFF" filter="url(#fgmulux0hhgbr)" height="24" style="stroke: #A80036; stroke-width: 0.800000011920929;" width="8" x="194" y="193.4719"/><rect fill="#FFFFFF" filter="url(#fgmulux0hhgbr)" height="78.025" style="stroke: #A80036; stroke-width: 0.800000011920929;" width="8" x="194" y="673.9984"/><rect fill="#FFFFFF" filter="url(#fgmulux0hhgbr)" height="608.8969" style="stroke: #A80036; stroke-width: 0.800000011920929;" width="8" x="411.6" y="101.0297"/><rect fill="#FFFFFF" filter="url(#fgmulux0hhgbr)" height="24" style="stroke: #A80036; stroke-width: 0.800000011920929;" width="8" x="652.4" y="416.8109"/><rect fill="#FFFFFF" filter="url(#fgmulux0hhgbr)" height="24" style="stroke: #A80036; stroke-width: 0.800000011920929;" width="8" x="652.4" y="626.55"/><path d="M10.4,106.6297 L152,106.6297 L152,112.2297 L144,120.2297 L10.4,120.2297 L10.4,106.6297 " fill="#EEEEEE" style="stroke: #000000; stroke-width: 0.800000011920929;"/><rect fill="none" height="701.0906" style="stroke: #000000; stroke-width: 1.600000023841858;" width="813.2" x="10.4" y="106.6297"/><text fill="#000000" font-family="sans-serif" font-size="10.4" font-weight="bold" lengthAdjust="spacingAndGlyphs" textLength="105.6" x="22.4" y="117.4844">Notification Process</text><path d="M201.6,124.4781 L201.6,168.4781 L323.2,168.4781 L323.2,132.4781 L315.2,124.4781 L201.6,124.4781 " fill="#D3D3D3" filter="url(#fgmulux0hhgbr)" style="stroke: #A80036; stroke-width: 0.800000011920929;"/><path d="M315.2,124.4781 L315.2,132.4781 L323.2,132.4781 L315.2,124.4781 " fill="#D3D3D3" style="stroke: #A80036; stroke-width: 0.800000011920929;"/><text fill="#000000" font-family="sans-serif" font-size="10.4" lengthAdjust="spacingAndGlyphs" textLength="104" x="206.4" y="138.5328">Events are published</text><text fill="#000000" font-family="sans-serif" font-size="10.4" lengthAdjust="spacingAndGlyphs" textLength="104.8" x="206.4" y="150.7813">to Notification Topic</text><text fill="#000000" font-family="sans-serif" font-size="10.4" lengthAdjust="spacingAndGlyphs" textLength="95.2" x="206.4" y="163.0297">by Central Services</text><polygon fill="#A80036" points="210.8,190.2719,202.8,193.4719,210.8,196.6719,207.6,193.4719" style="stroke: #A80036; stroke-width: 0.800000011920929;"/><line style="stroke: #A80036; stroke-width: 0.800000011920929;" x1="206" x2="410.8" y1="193.4719" y2="193.4719"/><text fill="#000000" font-family="sans-serif" font-size="10.4" font-weight="bold" lengthAdjust="spacingAndGlyphs" textLength="7.2" x="215.6" y="189.6781">1</text><text fill="#000000" font-family="sans-serif" font-size="10.4" lengthAdjust="spacingAndGlyphs" textLength="167.2" x="226" y="189.6781">Consumes notification messages</text><line style="stroke: #A80036; stroke-width: 0.800000011920929;" x1="419.6" x2="453.2" y1="240.9203" y2="240.9203"/><line style="stroke: #A80036; stroke-width: 0.800000011920929;" x1="453.2" x2="453.2" y1="240.9203" y2="251.3203"/><line style="stroke: #A80036; stroke-width: 0.800000011920929;" x1="420.4" x2="453.2" y1="251.3203" y2="251.3203"/><polygon fill="#A80036" points="428.4,248.1203,420.4,251.3203,428.4,254.5203,425.2,251.3203" style="stroke: #A80036; stroke-width: 0.800000011920929;"/><text fill="#000000" font-family="sans-serif" font-size="10.4" font-weight="bold" lengthAdjust="spacingAndGlyphs" textLength="7.2" x="425.2" y="237.1266">2</text><text fill="#000000" font-family="sans-serif" font-size="10.4" lengthAdjust="spacingAndGlyphs" textLength="0" x="438.8" y="237.1266"/><path d="M423.2,261.7203 L423.2,281.7203 L656.8,281.7203 L656.8,269.7203 L648.8,261.7203 L423.2,261.7203 " fill="#D3D3D3" filter="url(#fgmulux0hhgbr)" style="stroke: #A80036; stroke-width: 0.800000011920929;"/><path d="M648.8,261.7203 L648.8,269.7203 L656.8,269.7203 L648.8,261.7203 " fill="#D3D3D3" style="stroke: #A80036; stroke-width: 0.800000011920929;"/><text fill="#000000" font-family="sans-serif" font-size="10.4" lengthAdjust="spacingAndGlyphs" textLength="216.8" x="428" y="275.775">Filter notification messages on event types</text><path d="M18.4,294.7688 L68,294.7688 L68,300.3688 L60,308.3688 L18.4,308.3688 L18.4,294.7688 " fill="#EEEEEE" style="stroke: #000000; stroke-width: 0.800000011920929;"/><rect fill="none" height="415.1578" style="stroke: #000000; stroke-width: 1.600000023841858;" width="682.8" x="18.4" y="294.7688"/><text fill="#000000" font-family="sans-serif" font-size="10.4" font-weight="bold" lengthAdjust="spacingAndGlyphs" textLength="13.6" x="30.4" y="305.6234">alt</text><text fill="#000000" font-family="sans-serif" font-size="8.8" font-weight="bold" lengthAdjust="spacingAndGlyphs" textLength="152" x="80" y="304.8766">[Messages event type that qualify]</text><polygon fill="#A80036" points="91.6,334.7141,83.6,337.9141,91.6,341.1141,88.4,337.9141" style="stroke: #A80036; stroke-width: 0.800000011920929;"/><line style="stroke: #A80036; stroke-width: 0.800000011920929;" x1="86.8" x2="410.8" y1="337.9141" y2="337.9141"/><text fill="#000000" font-family="sans-serif" font-size="10.4" font-weight="bold" lengthAdjust="spacingAndGlyphs" textLength="7.2" x="96.4" y="327.9961">3</text><text fill="#000000" font-family="sans-serif" font-size="10.4" lengthAdjust="spacingAndGlyphs" textLength="196" x="106.8" y="321.8719">Request additional info for notification</text><text fill="#FF0000" font-family="sans-serif" font-size="10.4" font-weight="bold" lengthAdjust="spacingAndGlyphs" textLength="64" x="106.8" y="334.1203">Error codes:</text><text fill="#FF0000" font-family="sans-serif" font-size="10.4" lengthAdjust="spacingAndGlyphs" textLength="57.6" x="174" y="334.1203">2001, 2003</text><path d="M242.4,372.3141 L242.4,392.3141 L404,392.3141 L404,380.3141 L396,372.3141 L242.4,372.3141 " fill="#D3D3D3" filter="url(#fgmulux0hhgbr)" style="stroke: #A80036; stroke-width: 0.800000011920929;"/><path d="M396,372.3141 L396,380.3141 L404,380.3141 L396,372.3141 " fill="#D3D3D3" style="stroke: #A80036; stroke-width: 0.800000011920929;"/><text fill="#000000" font-family="sans-serif" font-size="10.4" lengthAdjust="spacingAndGlyphs" textLength="144.8" x="247.2" y="386.3688">API call to Central Admin API</text><polygon fill="#A80036" points="642.8,413.6109,650.8,416.8109,642.8,420.0109,646,416.8109" style="stroke: #A80036; stroke-width: 0.800000011920929;"/><line style="stroke: #A80036; stroke-width: 0.800000011920929;" x1="419.6" x2="647.6" y1="416.8109" y2="416.8109"/><text fill="#000000" font-family="sans-serif" font-size="10.4" font-weight="bold" lengthAdjust="spacingAndGlyphs" textLength="7.2" x="425.2" y="413.0172">4</text><text fill="#000000" font-family="sans-serif" font-size="10.4" lengthAdjust="spacingAndGlyphs" textLength="207.2" x="435.6" y="413.0172">Persist message related data to CEP store</text><line style="stroke: #A80036; stroke-width: 0.800000011920929;" x1="419.6" x2="453.2" y1="464.2594" y2="464.2594"/><line style="stroke: #A80036; stroke-width: 0.800000011920929;" x1="453.2" x2="453.2" y1="464.2594" y2="474.6594"/><line style="stroke: #A80036; stroke-width: 0.800000011920929;" x1="420.4" x2="453.2" y1="474.6594" y2="474.6594"/><polygon fill="#A80036" points="428.4,471.4594,420.4,474.6594,428.4,477.8594,425.2,474.6594" style="stroke: #A80036; stroke-width: 0.800000011920929;"/><text fill="#000000" font-family="sans-serif" font-size="10.4" font-weight="bold" lengthAdjust="spacingAndGlyphs" textLength="7.2" x="425.2" y="460.4656">5</text><text fill="#000000" font-family="sans-serif" font-size="10.4" lengthAdjust="spacingAndGlyphs" textLength="0" x="438.8" y="460.4656"/><path d="M346.4,485.0594 L346.4,517.0594 L480.8,517.0594 L480.8,493.0594 L472.8,485.0594 L346.4,485.0594 " fill="#D3D3D3" filter="url(#fgmulux0hhgbr)" style="stroke: #A80036; stroke-width: 0.800000011920929;"/><path d="M472.8,485.0594 L472.8,493.0594 L480.8,493.0594 L472.8,485.0594 " fill="#D3D3D3" style="stroke: #A80036; stroke-width: 0.800000011920929;"/><text fill="#000000" font-family="sans-serif" font-size="10.4" lengthAdjust="spacingAndGlyphs" textLength="117.6" x="351.2" y="499.1141">Invoke the Rule Engine.</text><text fill="#000000" font-family="sans-serif" font-size="10.4" lengthAdjust="spacingAndGlyphs" textLength="92" x="351.2" y="511.3625">Evaluate the facts.</text><path d="M131.2,530.3563 L180.8,530.3563 L180.8,535.9563 L172.8,543.9563 L131.2,543.9563 L131.2,530.3563 " fill="#EEEEEE" style="stroke: #000000; stroke-width: 0.800000011920929;"/><rect fill="none" height="162.0063" style="stroke: #000000; stroke-width: 1.600000023841858;" width="562" x="131.2" y="530.3563"/><text fill="#000000" font-family="sans-serif" font-size="10.4" font-weight="bold" lengthAdjust="spacingAndGlyphs" textLength="13.6" x="143.2" y="541.2109">alt</text><text fill="#000000" font-family="sans-serif" font-size="8.8" font-weight="bold" lengthAdjust="spacingAndGlyphs" textLength="244" x="192.8" y="540.4641">[Qualifying messages will trigger a notification event]</text><line style="stroke: #A80036; stroke-width: 0.800000011920929;" x1="419.6" x2="453.2" y1="561.2531" y2="561.2531"/><line style="stroke: #A80036; stroke-width: 0.800000011920929;" x1="453.2" x2="453.2" y1="561.2531" y2="571.6531"/><line style="stroke: #A80036; stroke-width: 0.800000011920929;" x1="420.4" x2="453.2" y1="571.6531" y2="571.6531"/><polygon fill="#A80036" points="428.4,568.4531,420.4,571.6531,428.4,574.8531,425.2,571.6531" style="stroke: #A80036; stroke-width: 0.800000011920929;"/><text fill="#000000" font-family="sans-serif" font-size="10.4" font-weight="bold" lengthAdjust="spacingAndGlyphs" textLength="7.2" x="425.2" y="557.4594">6</text><text fill="#000000" font-family="sans-serif" font-size="10.4" lengthAdjust="spacingAndGlyphs" textLength="0" x="438.8" y="557.4594"/><path d="M423.2,582.0531 L423.2,602.0531 L631.2,602.0531 L631.2,590.0531 L623.2,582.0531 L423.2,582.0531 " fill="#D3D3D3" filter="url(#fgmulux0hhgbr)" style="stroke: #A80036; stroke-width: 0.800000011920929;"/><path d="M623.2,582.0531 L623.2,590.0531 L631.2,590.0531 L623.2,582.0531 " fill="#D3D3D3" style="stroke: #A80036; stroke-width: 0.800000011920929;"/><text fill="#000000" font-family="sans-serif" font-size="10.4" lengthAdjust="spacingAndGlyphs" textLength="191.2" x="428" y="596.1078">Notification messages is constructed.</text><polygon fill="#A80036" points="642.8,623.35,650.8,626.55,642.8,629.75,646,626.55" style="stroke: #A80036; stroke-width: 0.800000011920929;"/><line style="stroke: #A80036; stroke-width: 0.800000011920929;" x1="419.6" x2="647.6" y1="626.55" y2="626.55"/><text fill="#000000" font-family="sans-serif" font-size="10.4" font-weight="bold" lengthAdjust="spacingAndGlyphs" textLength="7.2" x="425.2" y="622.7563">7</text><text fill="#000000" font-family="sans-serif" font-size="10.4" lengthAdjust="spacingAndGlyphs" textLength="182.4" x="435.6" y="622.7563">Persist new notification to CEP Store</text><polygon fill="#A80036" points="210.8,670.7984,202.8,673.9984,210.8,677.1984,207.6,673.9984" style="stroke: #A80036; stroke-width: 0.800000011920929;"/><line style="stroke: #A80036; stroke-width: 0.800000011920929;" x1="206" x2="410.8" y1="673.9984" y2="673.9984"/><text fill="#000000" font-family="sans-serif" font-size="10.4" font-weight="bold" lengthAdjust="spacingAndGlyphs" textLength="7.2" x="215.6" y="670.2047">8</text><text fill="#000000" font-family="sans-serif" font-size="10.4" lengthAdjust="spacingAndGlyphs" textLength="184" x="226" y="670.2047">Place message to Notification-Topic</text><line style="stroke: #000000; stroke-width: 0.800000011920929; stroke-dasharray: 2.0,2.0;" x1="131.2" x2="693.2" y1="681.1984" y2="681.1984"/><text fill="#000000" font-family="sans-serif" font-size="8.8" font-weight="bold" lengthAdjust="spacingAndGlyphs" textLength="257.6" x="135.2" y="689.7063">[Message does not qualify for notification event (Ignore)]</text><line style="stroke: #000000; stroke-width: 0.800000011920929; stroke-dasharray: 2.0,2.0;" x1="18.4" x2="701.2" y1="698.7625" y2="698.7625"/><text fill="#000000" font-family="sans-serif" font-size="8.8" font-weight="bold" lengthAdjust="spacingAndGlyphs" textLength="309.6" x="22.4" y="707.2703">[Message event type does not qualify for notification action (Ignore)]</text><path d="M131.2,721.1266 L262.4,721.1266 L262.4,726.7266 L254.4,734.7266 L131.2,734.7266 L131.2,721.1266 " fill="#EEEEEE" style="stroke: #000000; stroke-width: 0.800000011920929;"/><rect fill="none" height="80.9938" style="stroke: #000000; stroke-width: 1.600000023841858;" width="684.4" x="131.2" y="721.1266"/><text fill="#000000" font-family="sans-serif" font-size="10.4" font-weight="bold" lengthAdjust="spacingAndGlyphs" textLength="95.2" x="143.2" y="731.9813">Notification event</text><polygon fill="#A80036" points="206.8,748.8234,198.8,752.0234,206.8,755.2234,203.6,752.0234" style="stroke: #A80036; stroke-width: 0.800000011920929;"/><line style="stroke: #A80036; stroke-width: 0.800000011920929; stroke-dasharray: 2.0,2.0;" x1="202" x2="749.6" y1="752.0234" y2="752.0234"/><text fill="#000000" font-family="sans-serif" font-size="10.4" font-weight="bold" lengthAdjust="spacingAndGlyphs" textLength="7.2" x="211.6" y="748.2297">9</text><text fill="#000000" font-family="sans-serif" font-size="10.4" lengthAdjust="spacingAndGlyphs" textLength="306.4" x="222" y="748.2297">Consumes messages from Notification Topic for processing.</text><path d="M539.2,762.4234 L539.2,794.4234 L743.2,794.4234 L743.2,770.4234 L735.2,762.4234 L539.2,762.4234 " fill="#D3D3D3" filter="url(#fgmulux0hhgbr)" style="stroke: #A80036; stroke-width: 0.800000011920929;"/><path d="M735.2,762.4234 L735.2,770.4234 L743.2,770.4234 L735.2,762.4234 " fill="#D3D3D3" style="stroke: #A80036; stroke-width: 0.800000011920929;"/><text fill="#000000" font-family="sans-serif" font-size="10.4" lengthAdjust="spacingAndGlyphs" textLength="187.2" x="544" y="776.4781">Notifier Handler to process topic and</text><text fill="#000000" font-family="sans-serif" font-size="10.4" lengthAdjust="spacingAndGlyphs" textLength="149.6" x="544" y="788.7266">distribute notifications/alerts</text><!--
@startuml
title 10.1. Notification Process Overview
autonumber

boundary "Central Admin API" as CLAPI
control "Central Event Processor" as CEP
control "Notification Handler" as NOTIFIER
collections "Notification-Topic" as TOPIC_NOTIFY
database "CEP Store" as DB

box "Central Services" #LightYellow
participant CLAPI
participant TOPIC_NOTIFY
end box
box "Central Event Processing Services" #LightGreen
participant CEP
participant DB
end box
box "Notifier Services" #LightBlue
participant NOTIFIER
end box

group Notification Process
    activate CEP
    note right of TOPIC_NOTIFY #LightGrey
        Events are published
        to Notification Topic
        by Central Services
    end note
    TOPIC_NOTIFY <- CEP: Consumes notification messages
    activate TOPIC_NOTIFY
    deactivate TOPIC_NOTIFY
    CEP -> CEP
    note right of CEP #LightGrey
        Filter notification messages on event types
    end note

    alt Messages event type that qualify
        CEP -> CLAPI: Request additional info for notification\n<color #FF0000><b>Error codes:</b> 2001, 2003 </color>
        activate CLAPI
        note left of CEP #LightGrey
            API call to Central Admin API
        end note
        deactivate CLAPI
        CEP -> DB: Persist message related data to CEP store
        activate DB
        deactivate DB
        CEP -> CEP
        note over of CEP #LightGrey
            Invoke the Rule Engine.
            Evaluate the facts.
        end note

        alt Qualifying messages will trigger a notification event
            CEP -> CEP
            note right of CEP #LightGrey
                Notification messages is constructed.
            end note
            CEP -> DB: Persist new notification to CEP Store
            activate DB
            deactivate DB
            TOPIC_NOTIFY <- CEP: Place message to Notification-Topic
            activate TOPIC_NOTIFY
        else Message does not qualify for notification event (Ignore)
        end
    else Message event type does not qualify for notification action (Ignore)
    deactivate CEP
    end

    group Notification event
    TOPIC_NOTIFY <- - NOTIFIER: Consumes messages from Notification Topic for processing.
    note left of NOTIFIER #LightGrey
        Notifier Handler to process topic and
        distribute notifications/alerts
    end note
            deactivate TOPIC_NOTIFY
    end
end
@enduml

PlantUML version 1.2018.11(Sat Sep 22 18:43:53 SAST 2018)
(GPL source distribution)
Java Runtime: OpenJDK Runtime Environment
JVM: OpenJDK 64-Bit Server VM
Java Version: 1.8.0_152-release-1343-b26
Operating System: Mac OS X
OS Version: 10.14.2
Default Encoding: UTF-8
Language: en
Country: ZA
--></g></svg>