<?xml version="1.0" encoding="UTF-8" standalone="no"?><svg xmlns="http://www.w3.org/2000/svg" xmlns:xlink="http://www.w3.org/1999/xlink" contentScriptType="application/ecmascript" contentStyleType="text/css" height="882.4px" preserveAspectRatio="none" style="width:858px;height:882px;" version="1.1" viewBox="0 0 858 882" width="858.4px" zoomAndPan="magnify"><defs><filter height="300%" id="f113l38liixk29" width="300%" x="-1" y="-1"><feGaussianBlur result="blurOut" stdDeviation="1.600000023841858"/><feColorMatrix in="blurOut" result="blurOut2" type="matrix" values="0 0 0 0 0 0 0 0 0 0 0 0 0 0 0 0 0 0 .4 0"/><feOffset dx="3.200000047683716" dy="3.200000047683716" in="blurOut2" result="blurOut3"/><feBlend in="SourceGraphic" in2="blurOut3" mode="normal"/></filter></defs><g><text fill="#000000" font-family="sans-serif" font-size="11.2" font-weight="bold" lengthAdjust="spacingAndGlyphs" textLength="204.8" x="327.8" y="18.8281">10.1. Notification Process Overview</text><rect fill="#FFFFE0" height="846.1203" style="stroke: #A80036; stroke-width: 0.800000011920929;" width="236.8" x="31.2" y="27.5906"/><text fill="#000000" font-family="sans-serif" font-size="10.4" font-weight="bold" lengthAdjust="spacingAndGlyphs" textLength="86.4" x="106.4" y="37.6453">Central Services</text><rect fill="#90EE90" height="846.1203" style="stroke: #A80036; stroke-width: 0.800000011920929;" width="343.2" x="371.6" y="27.5906"/><text fill="#000000" font-family="sans-serif" font-size="10.4" font-weight="bold" lengthAdjust="spacingAndGlyphs" textLength="181.6" x="452.4" y="37.6453">Central Event Processing Services</text><rect fill="#ADD8E6" height="846.1203" style="stroke: #A80036; stroke-width: 0.800000011920929;" width="120.8" x="716.4" y="27.5906"/><text fill="#000000" font-family="sans-serif" font-size="10.4" font-weight="bold" lengthAdjust="spacingAndGlyphs" textLength="87.2" x="733.2" y="37.6453">Notifier Services</text><rect fill="#FFFFFF" filter="url(#f113l38liixk29)" height="24" style="stroke: #A80036; stroke-width: 0.800000011920929;" width="8" x="89.2" y="193.4719"/><rect fill="#FFFFFF" filter="url(#f113l38liixk29)" height="78.025" style="stroke: #A80036; stroke-width: 0.800000011920929;" width="8" x="89.2" y="673.9984"/><rect fill="#FFFFFF" filter="url(#f113l38liixk29)" height="24" style="stroke: #A80036; stroke-width: 0.800000011920929;" width="8" x="208.4" y="337.9141"/><rect fill="#FFFFFF" filter="url(#f113l38liixk29)" height="608.8969" style="stroke: #A80036; stroke-width: 0.800000011920929;" width="8" x="438" y="101.0297"/><rect fill="#FFFFFF" filter="url(#f113l38liixk29)" height="24" style="stroke: #A80036; stroke-width: 0.800000011920929;" width="8" x="678.8" y="416.8109"/><rect fill="#FFFFFF" filter="url(#f113l38liixk29)" height="24" style="stroke: #A80036; stroke-width: 0.800000011920929;" width="8" x="678.8" y="626.55"/><rect fill="#FFFFFF" filter="url(#f113l38liixk29)" height="701.0906" style="stroke: #000000; stroke-width: 1.600000023841858;" width="839.6" x="10.4" y="106.6297"/><rect fill="#FFFFFF" filter="url(#f113l38liixk29)" height="415.1578" style="stroke: #000000; stroke-width: 1.600000023841858;" width="709.2" x="18.4" y="294.7688"/><rect fill="#FFFFFF" filter="url(#f113l38liixk29)" height="162.0063" style="stroke: #000000; stroke-width: 1.600000023841858;" width="693.2" x="26.4" y="530.3563"/><rect fill="#FFFFFF" height="11.9641" style="stroke: none; stroke-width: 0.800000011920929;" width="693.2" x="26.4" y="680.3984"/><rect fill="#FFFFFF" height="11.9641" style="stroke: none; stroke-width: 0.800000011920929;" width="709.2" x="18.4" y="697.9625"/><rect fill="#FFFFFF" filter="url(#f113l38liixk29)" height="80.9938" style="stroke: #000000; stroke-width: 1.600000023841858;" width="815.6" x="26.4" y="721.1266"/><line style="stroke: #A80036; stroke-width: 0.800000011920929; stroke-dasharray: 5.0,5.0;" x1="92.8" x2="92.8" y1="93.0297" y2="821.3203"/><line style="stroke: #A80036; stroke-width: 0.800000011920929; stroke-dasharray: 5.0,5.0;" x1="212" x2="212" y1="93.0297" y2="821.3203"/><line style="stroke: #A80036; stroke-width: 0.800000011920929; stroke-dasharray: 5.0,5.0;" x1="442" x2="442" y1="93.0297" y2="821.3203"/><line style="stroke: #A80036; stroke-width: 0.800000011920929; stroke-dasharray: 5.0,5.0;" x1="682.8" x2="682.8" y1="93.0297" y2="821.3203"/><line style="stroke: #A80036; stroke-width: 0.800000011920929; stroke-dasharray: 5.0,5.0;" x1="776.4" x2="776.4" y1="93.0297" y2="821.3203"/><rect fill="#FEFECE" filter="url(#f113l38liixk29)" height="24.3906" style="stroke: #A80036; stroke-width: 1.2000000178813934;" width="111.2" x="37.6" y="61.4391"/><rect fill="#FEFECE" filter="url(#f113l38liixk29)" height="24.3906" style="stroke: #A80036; stroke-width: 1.2000000178813934;" width="111.2" x="34.4" y="64.6391"/><text fill="#000000" font-family="sans-serif" font-size="11.2" lengthAdjust="spacingAndGlyphs" textLength="100" x="40" y="81.0672">Notification-Topic</text><rect fill="#FEFECE" filter="url(#f113l38liixk29)" height="24.3906" style="stroke: #A80036; stroke-width: 1.2000000178813934;" width="111.2" x="37.6" y="820.5203"/><rect fill="#FEFECE" filter="url(#f113l38liixk29)" height="24.3906" style="stroke: #A80036; stroke-width: 1.2000000178813934;" width="111.2" x="34.4" y="823.7203"/><text fill="#000000" font-family="sans-serif" font-size="11.2" lengthAdjust="spacingAndGlyphs" textLength="100" x="40" y="840.1485">Notification-Topic</text><text fill="#000000" font-family="sans-serif" font-size="11.2" lengthAdjust="spacingAndGlyphs" textLength="100" x="160" y="90.6672">Central Admin API</text><path d="M196,57.4391 L196,76.6391 M196,67.0391 L209.6,67.0391 " fill="none" filter="url(#f113l38liixk29)" style="stroke: #A80036; stroke-width: 1.600000023841858;"/><ellipse cx="219.2" cy="67.0391" fill="#FEFECE" filter="url(#f113l38liixk29)" rx="9.6" ry="9.6" style="stroke: #A80036; stroke-width: 1.600000023841858;"/><text fill="#000000" font-family="sans-serif" font-size="11.2" lengthAdjust="spacingAndGlyphs" textLength="100" x="160" y="831.3484">Central Admin API</text><path d="M196,836.9109 L196,856.111 M196,846.511 L209.6,846.511 " fill="none" filter="url(#f113l38liixk29)" style="stroke: #A80036; stroke-width: 1.600000023841858;"/><ellipse cx="219.2" cy="846.511" fill="#FEFECE" filter="url(#f113l38liixk29)" rx="9.6" ry="9.6" style="stroke: #A80036; stroke-width: 1.600000023841858;"/><text fill="#000000" font-family="sans-serif" font-size="11.2" lengthAdjust="spacingAndGlyphs" textLength="129.6" x="374.8" y="90.6672">Central Event Processor</text><path d="M425.6,57.4391 L425.6,76.6391 M425.6,67.0391 L439.2,67.0391 " fill="none" filter="url(#f113l38liixk29)" style="stroke: #A80036; stroke-width: 1.600000023841858;"/><ellipse cx="448.8" cy="67.0391" fill="#FEFECE" filter="url(#f113l38liixk29)" rx="9.6" ry="9.6" style="stroke: #A80036; stroke-width: 1.600000023841858;"/><text fill="#000000" font-family="sans-serif" font-size="11.2" lengthAdjust="spacingAndGlyphs" textLength="129.6" x="374.8" y="831.3484">Central Event Processor</text><path d="M425.6,836.9109 L425.6,856.111 M425.6,846.511 L439.2,846.511 " fill="none" filter="url(#f113l38liixk29)" style="stroke: #A80036; stroke-width: 1.600000023841858;"/><ellipse cx="448.8" cy="846.511" fill="#FEFECE" filter="url(#f113l38liixk29)" rx="9.6" ry="9.6" style="stroke: #A80036; stroke-width: 1.600000023841858;"/><text fill="#000000" font-family="sans-serif" font-size="11.2" lengthAdjust="spacingAndGlyphs" textLength="52.8" x="654" y="90.6672">CEP Store</text><path d="M668.4,51.0391 C668.4,43.0391 682.8,43.0391 682.8,43.0391 C682.8,43.0391 697.2,43.0391 697.2,51.0391 L697.2,71.8391 C697.2,79.8391 682.8,79.8391 682.8,79.8391 C682.8,79.8391 668.4,79.8391 668.4,71.8391 L668.4,51.0391 " fill="#FEFECE" filter="url(#f113l38liixk29)" style="stroke: #000000; stroke-width: 1.2000000178813934;"/><path d="M668.4,51.0391 C668.4,59.0391 682.8,59.0391 682.8,59.0391 C682.8,59.0391 697.2,59.0391 697.2,51.0391 " fill="none" style="stroke: #000000; stroke-width: 1.2000000178813934;"/><text fill="#000000" font-family="sans-serif" font-size="11.2" lengthAdjust="spacingAndGlyphs" textLength="52.8" x="654" y="831.3484">CEP Store</text><path d="M668.4,841.711 C668.4,833.7109 682.8,833.7109 682.8,833.7109 C682.8,833.7109 697.2,833.7109 697.2,841.711 L697.2,862.511 C697.2,870.511 682.8,870.511 682.8,870.511 C682.8,870.511 668.4,870.511 668.4,862.511 L668.4,841.711 " fill="#FEFECE" filter="url(#f113l38liixk29)" style="stroke: #000000; stroke-width: 1.2000000178813934;"/><path d="M668.4,841.711 C668.4,849.711 682.8,849.711 682.8,849.711 C682.8,849.711 697.2,849.711 697.2,841.711 " fill="none" style="stroke: #000000; stroke-width: 1.2000000178813934;"/><text fill="#000000" font-family="sans-serif" font-size="11.2" lengthAdjust="spacingAndGlyphs" textLength="109.6" x="719.6" y="90.6672">Notification Handler</text><ellipse cx="776.8" cy="67.0391" fill="#FEFECE" filter="url(#f113l38liixk29)" rx="9.6" ry="9.6" style="stroke: #A80036; stroke-width: 1.600000023841858;"/><polygon fill="#A80036" points="773.6,57.4391,778.4,53.4391,776.8,57.4391,778.4,61.4391,773.6,57.4391" style="stroke: #A80036; stroke-width: 0.800000011920929;"/><text fill="#000000" font-family="sans-serif" font-size="11.2" lengthAdjust="spacingAndGlyphs" textLength="109.6" x="719.6" y="831.3484">Notification Handler</text><ellipse cx="776.8" cy="846.511" fill="#FEFECE" filter="url(#f113l38liixk29)" rx="9.6" ry="9.6" style="stroke: #A80036; stroke-width: 1.600000023841858;"/><polygon fill="#A80036" points="773.6,836.9109,778.4,832.9109,776.8,836.9109,778.4,840.911,773.6,836.9109" style="stroke: #A80036; stroke-width: 0.800000011920929;"/><rect fill="#FFFFFF" filter="url(#f113l38liixk29)" height="24" style="stroke: #A80036; stroke-width: 0.800000011920929;" width="8" x="89.2" y="193.4719"/><rect fill="#FFFFFF" filter="url(#f113l38liixk29)" height="78.025" style="stroke: #A80036; stroke-width: 0.800000011920929;" width="8" x="89.2" y="673.9984"/><rect fill="#FFFFFF" filter="url(#f113l38liixk29)" height="24" style="stroke: #A80036; stroke-width: 0.800000011920929;" width="8" x="208.4" y="337.9141"/><rect fill="#FFFFFF" filter="url(#f113l38liixk29)" height="608.8969" style="stroke: #A80036; stroke-width: 0.800000011920929;" width="8" x="438" y="101.0297"/><rect fill="#FFFFFF" filter="url(#f113l38liixk29)" height="24" style="stroke: #A80036; stroke-width: 0.800000011920929;" width="8" x="678.8" y="416.8109"/><rect fill="#FFFFFF" filter="url(#f113l38liixk29)" height="24" style="stroke: #A80036; stroke-width: 0.800000011920929;" width="8" x="678.8" y="626.55"/><path d="M10.4,106.6297 L152,106.6297 L152,112.2297 L144,120.2297 L10.4,120.2297 L10.4,106.6297 " fill="#EEEEEE" style="stroke: #000000; stroke-width: 0.800000011920929;"/><rect fill="none" height="701.0906" style="stroke: #000000; stroke-width: 1.600000023841858;" width="839.6" x="10.4" y="106.6297"/><text fill="#000000" font-family="sans-serif" font-size="10.4" font-weight="bold" lengthAdjust="spacingAndGlyphs" textLength="105.6" x="22.4" y="117.4844">Notification Process</text><path d="M30.4,124.4781 L30.4,168.4781 L152,168.4781 L152,132.4781 L144,124.4781 L30.4,124.4781 " fill="#FBFB77" filter="url(#f113l38liixk29)" style="stroke: #A80036; stroke-width: 0.800000011920929;"/><path d="M144,124.4781 L144,132.4781 L152,132.4781 L144,124.4781 " fill="#FBFB77" style="stroke: #A80036; stroke-width: 0.800000011920929;"/><text fill="#000000" font-family="sans-serif" font-size="10.4" lengthAdjust="spacingAndGlyphs" textLength="104" x="35.2" y="138.5328">Events are published</text><text fill="#000000" font-family="sans-serif" font-size="10.4" lengthAdjust="spacingAndGlyphs" textLength="104.8" x="35.2" y="150.7813">to Notification Topic</text><text fill="#000000" font-family="sans-serif" font-size="10.4" lengthAdjust="spacingAndGlyphs" textLength="95.2" x="35.2" y="163.0297">by Central Services</text><polygon fill="#A80036" points="106,190.2719,98,193.4719,106,196.6719,102.8,193.4719" style="stroke: #A80036; stroke-width: 0.800000011920929;"/><line style="stroke: #A80036; stroke-width: 0.800000011920929; stroke-dasharray: 2.0,2.0;" x1="101.2" x2="437.2" y1="193.4719" y2="193.4719"/><text fill="#000000" font-family="sans-serif" font-size="10.4" font-weight="bold" lengthAdjust="spacingAndGlyphs" textLength="7.2" x="110.8" y="189.6781">1</text><text fill="#000000" font-family="sans-serif" font-size="10.4" lengthAdjust="spacingAndGlyphs" textLength="167.2" x="121.2" y="189.6781">Consumes notification messages</text><line style="stroke: #A80036; stroke-width: 0.800000011920929;" x1="446" x2="479.6" y1="240.9203" y2="240.9203"/><line style="stroke: #A80036; stroke-width: 0.800000011920929;" x1="479.6" x2="479.6" y1="240.9203" y2="251.3203"/><line style="stroke: #A80036; stroke-width: 0.800000011920929;" x1="446.8" x2="479.6" y1="251.3203" y2="251.3203"/><polygon fill="#A80036" points="454.8,248.1203,446.8,251.3203,454.8,254.5203,451.6,251.3203" style="stroke: #A80036; stroke-width: 0.800000011920929;"/><text fill="#000000" font-family="sans-serif" font-size="10.4" font-weight="bold" lengthAdjust="spacingAndGlyphs" textLength="7.2" x="451.6" y="237.1266">2</text><text fill="#000000" font-family="sans-serif" font-size="10.4" lengthAdjust="spacingAndGlyphs" textLength="147.2" x="462" y="237.1266">Filter according to event type</text><path d="M323.2,261.7203 L323.2,281.7203 L556.8,281.7203 L556.8,269.7203 L548.8,261.7203 L323.2,261.7203 " fill="#FBFB77" filter="url(#f113l38liixk29)" style="stroke: #A80036; stroke-width: 0.800000011920929;"/><path d="M548.8,261.7203 L548.8,269.7203 L556.8,269.7203 L548.8,261.7203 " fill="#FBFB77" style="stroke: #A80036; stroke-width: 0.800000011920929;"/><text fill="#000000" font-family="sans-serif" font-size="10.4" lengthAdjust="spacingAndGlyphs" textLength="216.8" x="328" y="275.775">Filter notification messages on event types</text><path d="M18.4,294.7688 L68,294.7688 L68,300.3688 L60,308.3688 L18.4,308.3688 L18.4,294.7688 " fill="#EEEEEE" style="stroke: #000000; stroke-width: 0.800000011920929;"/><rect fill="none" height="415.1578" style="stroke: #000000; stroke-width: 1.600000023841858;" width="709.2" x="18.4" y="294.7688"/><text fill="#000000" font-family="sans-serif" font-size="10.4" font-weight="bold" lengthAdjust="spacingAndGlyphs" textLength="13.6" x="30.4" y="305.6234">alt</text><text fill="#000000" font-family="sans-serif" font-size="8.8" font-weight="bold" lengthAdjust="spacingAndGlyphs" textLength="152" x="80" y="304.8766">[Messages event type that qualify]</text><polygon fill="#A80036" points="225.2,334.7141,217.2,337.9141,225.2,341.1141,222,337.9141" style="stroke: #A80036; stroke-width: 0.800000011920929;"/><line style="stroke: #A80036; stroke-width: 0.800000011920929;" x1="220.4" x2="437.2" y1="337.9141" y2="337.9141"/><text fill="#000000" font-family="sans-serif" font-size="10.4" font-weight="bold" lengthAdjust="spacingAndGlyphs" textLength="7.2" x="230" y="327.9961">3</text><text fill="#000000" font-family="sans-serif" font-size="10.4" lengthAdjust="spacingAndGlyphs" textLength="196" x="240.4" y="321.8719">Request additional info for notification</text><text fill="#FF0000" font-family="sans-serif" font-size="10.4" font-weight="bold" lengthAdjust="spacingAndGlyphs" textLength="64" x="240.4" y="334.1203">Error codes:</text><text fill="#FF0000" font-family="sans-serif" font-size="10.4" lengthAdjust="spacingAndGlyphs" textLength="57.6" x="307.6" y="334.1203">2001, 2003</text><path d="M268.8,372.3141 L268.8,392.3141 L430.4,392.3141 L430.4,380.3141 L422.4,372.3141 L268.8,372.3141 " fill="#FBFB77" filter="url(#f113l38liixk29)" style="stroke: #A80036; stroke-width: 0.800000011920929;"/><path d="M422.4,372.3141 L422.4,380.3141 L430.4,380.3141 L422.4,372.3141 " fill="#FBFB77" style="stroke: #A80036; stroke-width: 0.800000011920929;"/><text fill="#000000" font-family="sans-serif" font-size="10.4" lengthAdjust="spacingAndGlyphs" textLength="144.8" x="273.6" y="386.3688">API call to Central Admin API</text><polygon fill="#A80036" points="669.2,413.6109,677.2,416.8109,669.2,420.0109,672.4,416.8109" style="stroke: #A80036; stroke-width: 0.800000011920929;"/><line style="stroke: #A80036; stroke-width: 0.800000011920929; stroke-dasharray: 2.0,2.0;" x1="446" x2="674" y1="416.8109" y2="416.8109"/><text fill="#000000" font-family="sans-serif" font-size="10.4" font-weight="bold" lengthAdjust="spacingAndGlyphs" textLength="7.2" x="451.6" y="413.0172">4</text><text fill="#000000" font-family="sans-serif" font-size="10.4" lengthAdjust="spacingAndGlyphs" textLength="207.2" x="462" y="413.0172">Persist message related data to CEP store</text><line style="stroke: #A80036; stroke-width: 0.800000011920929;" x1="446" x2="479.6" y1="464.2594" y2="464.2594"/><line style="stroke: #A80036; stroke-width: 0.800000011920929;" x1="479.6" x2="479.6" y1="464.2594" y2="474.6594"/><line style="stroke: #A80036; stroke-width: 0.800000011920929;" x1="446.8" x2="479.6" y1="474.6594" y2="474.6594"/><polygon fill="#A80036" points="454.8,471.4594,446.8,474.6594,454.8,477.8594,451.6,474.6594" style="stroke: #A80036; stroke-width: 0.800000011920929;"/><text fill="#000000" font-family="sans-serif" font-size="10.4" font-weight="bold" lengthAdjust="spacingAndGlyphs" textLength="7.2" x="451.6" y="460.4656">5</text><text fill="#000000" font-family="sans-serif" font-size="10.4" lengthAdjust="spacingAndGlyphs" textLength="145.6" x="462" y="460.4656">Evaluate enhanced meta data</text><path d="M368.8,485.0594 L368.8,517.0594 L511.2,517.0594 L511.2,493.0594 L503.2,485.0594 L368.8,485.0594 " fill="#FBFB77" filter="url(#f113l38liixk29)" style="stroke: #A80036; stroke-width: 0.800000011920929;"/><path d="M503.2,485.0594 L503.2,493.0594 L511.2,493.0594 L503.2,485.0594 " fill="#FBFB77" style="stroke: #A80036; stroke-width: 0.800000011920929;"/><text fill="#000000" font-family="sans-serif" font-size="10.4" lengthAdjust="spacingAndGlyphs" textLength="125.6" x="373.6" y="499.1141">Invoke the "Rule Engine".</text><text fill="#000000" font-family="sans-serif" font-size="10.4" lengthAdjust="spacingAndGlyphs" textLength="92" x="373.6" y="511.3625">Evaluate the facts.</text><path d="M26.4,530.3563 L76,530.3563 L76,535.9563 L68,543.9563 L26.4,543.9563 L26.4,530.3563 " fill="#EEEEEE" style="stroke: #000000; stroke-width: 0.800000011920929;"/><rect fill="none" height="162.0063" style="stroke: #000000; stroke-width: 1.600000023841858;" width="693.2" x="26.4" y="530.3563"/><text fill="#000000" font-family="sans-serif" font-size="10.4" font-weight="bold" lengthAdjust="spacingAndGlyphs" textLength="13.6" x="38.4" y="541.2109">alt</text><text fill="#000000" font-family="sans-serif" font-size="8.8" font-weight="bold" lengthAdjust="spacingAndGlyphs" textLength="244" x="88" y="540.4641">[Qualifying messages will trigger a notification event]</text><line style="stroke: #A80036; stroke-width: 0.800000011920929;" x1="446" x2="479.6" y1="561.2531" y2="561.2531"/><line style="stroke: #A80036; stroke-width: 0.800000011920929;" x1="479.6" x2="479.6" y1="561.2531" y2="571.6531"/><line style="stroke: #A80036; stroke-width: 0.800000011920929;" x1="446.8" x2="479.6" y1="571.6531" y2="571.6531"/><polygon fill="#A80036" points="454.8,568.4531,446.8,571.6531,454.8,574.8531,451.6,571.6531" style="stroke: #A80036; stroke-width: 0.800000011920929;"/><text fill="#000000" font-family="sans-serif" font-size="10.4" font-weight="bold" lengthAdjust="spacingAndGlyphs" textLength="7.2" x="451.6" y="557.4594">6</text><text fill="#000000" font-family="sans-serif" font-size="10.4" lengthAdjust="spacingAndGlyphs" textLength="178.4" x="462" y="557.4594">Message qualifies as per evaluation</text><path d="M336,582.0531 L336,602.0531 L544,602.0531 L544,590.0531 L536,582.0531 L336,582.0531 " fill="#FBFB77" filter="url(#f113l38liixk29)" style="stroke: #A80036; stroke-width: 0.800000011920929;"/><path d="M536,582.0531 L536,590.0531 L544,590.0531 L536,582.0531 " fill="#FBFB77" style="stroke: #A80036; stroke-width: 0.800000011920929;"/><text fill="#000000" font-family="sans-serif" font-size="10.4" lengthAdjust="spacingAndGlyphs" textLength="191.2" x="340.8" y="596.1078">Notification messages is constructed.</text><polygon fill="#A80036" points="669.2,623.35,677.2,626.55,669.2,629.75,672.4,626.55" style="stroke: #A80036; stroke-width: 0.800000011920929;"/><line style="stroke: #A80036; stroke-width: 0.800000011920929;" x1="446" x2="674" y1="626.55" y2="626.55"/><text fill="#000000" font-family="sans-serif" font-size="10.4" font-weight="bold" lengthAdjust="spacingAndGlyphs" textLength="7.2" x="451.6" y="622.7563">7</text><text fill="#000000" font-family="sans-serif" font-size="10.4" lengthAdjust="spacingAndGlyphs" textLength="182.4" x="462" y="622.7563">Persist new notification to CEP Store</text><polygon fill="#A80036" points="106,670.7984,98,673.9984,106,677.1984,102.8,673.9984" style="stroke: #A80036; stroke-width: 0.800000011920929;"/><line style="stroke: #A80036; stroke-width: 0.800000011920929;" x1="101.2" x2="437.2" y1="673.9984" y2="673.9984"/><text fill="#000000" font-family="sans-serif" font-size="10.4" font-weight="bold" lengthAdjust="spacingAndGlyphs" textLength="7.2" x="110.8" y="670.2047">8</text><text fill="#000000" font-family="sans-serif" font-size="10.4" lengthAdjust="spacingAndGlyphs" textLength="184" x="121.2" y="670.2047">Place message to Notification-Topic</text><line style="stroke: #000000; stroke-width: 0.800000011920929; stroke-dasharray: 2.0,2.0;" x1="26.4" x2="719.6" y1="681.1984" y2="681.1984"/><text fill="#000000" font-family="sans-serif" font-size="8.8" font-weight="bold" lengthAdjust="spacingAndGlyphs" textLength="260" x="30.4" y="689.7063">[Ignore - Message does not qualify for notification event]</text><line style="stroke: #000000; stroke-width: 0.800000011920929; stroke-dasharray: 2.0,2.0;" x1="18.4" x2="727.6" y1="698.7625" y2="698.7625"/><text fill="#000000" font-family="sans-serif" font-size="8.8" font-weight="bold" lengthAdjust="spacingAndGlyphs" textLength="263.2" x="22.4" y="707.2703">[Ignore - Message does not qualify for notification action]</text><path d="M26.4,721.1266 L157.6,721.1266 L157.6,726.7266 L149.6,734.7266 L26.4,734.7266 L26.4,721.1266 " fill="#EEEEEE" style="stroke: #000000; stroke-width: 0.800000011920929;"/><rect fill="none" height="80.9938" style="stroke: #000000; stroke-width: 1.600000023841858;" width="815.6" x="26.4" y="721.1266"/><text fill="#000000" font-family="sans-serif" font-size="10.4" font-weight="bold" lengthAdjust="spacingAndGlyphs" textLength="95.2" x="38.4" y="731.9813">Notification event</text><polygon fill="#A80036" points="102,748.8234,94,752.0234,102,755.2234,98.8,752.0234" style="stroke: #A80036; stroke-width: 0.800000011920929;"/><line style="stroke: #A80036; stroke-width: 0.800000011920929; stroke-dasharray: 2.0,2.0;" x1="97.2" x2="776" y1="752.0234" y2="752.0234"/><text fill="#000000" font-family="sans-serif" font-size="10.4" font-weight="bold" lengthAdjust="spacingAndGlyphs" textLength="7.2" x="106.8" y="748.2297">9</text><text fill="#000000" font-family="sans-serif" font-size="10.4" lengthAdjust="spacingAndGlyphs" textLength="306.4" x="117.2" y="748.2297">Consumes messages from Notification Topic for processing.</text><path d="M565.6,762.4234 L565.6,794.4234 L769.6,794.4234 L769.6,770.4234 L761.6,762.4234 L565.6,762.4234 " fill="#FBFB77" filter="url(#f113l38liixk29)" style="stroke: #A80036; stroke-width: 0.800000011920929;"/><path d="M761.6,762.4234 L761.6,770.4234 L769.6,770.4234 L761.6,762.4234 " fill="#FBFB77" style="stroke: #A80036; stroke-width: 0.800000011920929;"/><text fill="#000000" font-family="sans-serif" font-size="10.4" lengthAdjust="spacingAndGlyphs" textLength="187.2" x="570.4" y="776.4781">Notifier Handler to process topic and</text><text fill="#000000" font-family="sans-serif" font-size="10.4" lengthAdjust="spacingAndGlyphs" textLength="144.8" x="570.4" y="788.7266">send out notifications/alerts</text><!--
@startuml
title 10.1. Notification Process Overview
autonumber

boundary "Central Admin API" as CLAPI
boundary "Central Event Processor" as CEP
control "Notification Handler" as NOTIFIER
collections "Notification-Topic" as TOPIC_NOTIFY
database "CEP Store" as DB

box "Central Services" #LightYellow
participant TOPIC_NOTIFY
participant CLAPI
end box
box "Central Event Processing Services" #LightGreen
participant CEP
participant DB
end box
box "Notifier Services" #LightBlue
participant NOTIFIER
end box

group Notification Process
    activate CEP
    note over TOPIC_NOTIFY
        Events are published
        to Notification Topic
        by Central Services
    end note
    TOPIC_NOTIFY <- - CEP: Consumes notification messages
    activate TOPIC_NOTIFY
    deactivate TOPIC_NOTIFY
    CEP -> CEP: Filter according to event type
    note over CEP
        Filter notification messages on event types
    end note

    alt Messages event type that qualify
        CEP -> CLAPI: Request additional info for notification\n<color #FF0000><b>Error codes:</b> 2001, 2003 </color>
        activate CLAPI
        note left of CEP
            API call to Central Admin API
        end note
        deactivate CLAPI
        CEP - -> DB: Persist message related data to CEP store
        activate DB
        deactivate DB
        CEP -> CEP: Evaluate enhanced meta data
        note over of CEP
            Invoke the "Rule Engine".
            Evaluate the facts.
        end note

        alt Qualifying messages will trigger a notification event
            CEP -> CEP: Message qualifies as per evaluation
            note over of CEP
                Notification messages is constructed.
            end note
            CEP -> DB: Persist new notification to CEP Store
            activate DB
            deactivate DB
            TOPIC_NOTIFY <- CEP: Place message to Notification-Topic
            activate TOPIC_NOTIFY
        else Ignore - Message does not qualify for notification event
        end
    else Ignore - Message does not qualify for notification action
    deactivate CEP
    end

    group Notification event
    TOPIC_NOTIFY <- - NOTIFIER: Consumes messages from Notification Topic for processing.
    note left of NOTIFIER
        Notifier Handler to process topic and
        send out notifications/alerts
    end note
            deactivate TOPIC_NOTIFY
    end
end
@enduml

PlantUML version 1.2018.11(Sat Sep 22 18:43:53 SAST 2018)
(GPL source distribution)
Java Runtime: OpenJDK Runtime Environment
JVM: OpenJDK 64-Bit Server VM
Java Version: 1.8.0_152-release-1343-b26
Operating System: Mac OS X
OS Version: 10.14.2
Default Encoding: UTF-8
Language: en
Country: ZA
--></g></svg>